<svg xmlns="http://www.w3.org/2000/svg" aria-hidden="true" style="position:absolute;width:0;height:0;overflow:hidden">
    <defs>
        <symbol id="pizza-slice" viewBox="0 0 50 50">
            <svg width="50" height="50" viewBox="0 0 50 50" fill="none" xmlns="http://www.w3.org/2000/svg">
                <path d="M39.5274 12.0195C34.9971 10.1738 30.2432 9.375 25 9.375C19.7569 9.375 14.6387 10.2539 10.459 11.9805C9.66995 12.3027 8.96878 12.8594 9.47561 13.8848C9.88675 14.7178 19.8242 36.6211 23.5996 44.4336C23.7268 44.6975 23.9259 44.9202 24.1739 45.076C24.422 45.2319 24.709 45.3145 25.002 45.3145C25.2949 45.3145 25.582 45.2319 25.83 45.076C26.0781 44.9202 26.2772 44.6975 26.4043 44.4336L40.4717 13.9434C40.7832 13.2695 40.5596 12.4395 39.5274 12.0195Z" stroke="#FD9A18" stroke-width="3" stroke-miterlimit="10" />
                <path d="M42.6152 8.07422C37.5303 6.0625 31.2666 4.6875 25 4.6875C18.7334 4.6875 12.5635 5.93555 7.37108 8.01563C6.91307 8.20313 6.05467 8.63574 6.29002 9.36328L7.23534 11.7188C7.62596 12.5195 8.08202 12.5195 8.70604 12.5195C8.88084 12.5195 9.12498 12.4219 9.41698 12.3066C14.386 10.3766 19.6693 9.3827 25 9.375C30.543 9.375 36.2217 10.5469 40.5859 12.3047C40.9365 12.4414 41.1318 12.5176 41.2969 12.5176C41.9394 12.5176 42.3105 12.7314 42.7617 11.7266L43.7158 9.375C43.9121 8.78906 43.2285 8.31836 42.6152 8.07422Z" stroke="#FD9A18" stroke-width="3" stroke-miterlimit="10" />
                <path d="M18.75 21.875C20.4759 21.875 21.875 20.4759 21.875 18.75C21.875 17.0241 20.4759 15.625 18.75 15.625C17.0241 15.625 15.625 17.0241 15.625 18.75C15.625 20.4759 17.0241 21.875 18.75 21.875Z" fill="#FD9A18" />
                <path d="M31.25 23.4375C32.9759 23.4375 34.375 22.0384 34.375 20.3125C34.375 18.5866 32.9759 17.1875 31.25 17.1875C29.5241 17.1875 28.125 18.5866 28.125 20.3125C28.125 22.0384 29.5241 23.4375 31.25 23.4375Z" fill="#FD9A18" />
                <path d="M25 34.375C26.7259 34.375 28.125 32.9759 28.125 31.25C28.125 29.5241 26.7259 28.125 25 28.125C23.2741 28.125 21.875 29.5241 21.875 31.25C21.875 32.9759 23.2741 34.375 25 34.375Z" fill="#FD9A18" />
            </svg>
        </symbol>
        <symbol id="tools" viewBox="0 0 50 50">
            <svg width="50" height="50" viewBox="0 0 50 50" fill="none" xmlns="http://www.w3.org/2000/svg">
                <path d="M8.20312 4.29688L7.32344 5.12656L5.12656 7.32344L4.29688 8.20312L4.93125 9.22813L8.20312 14.6969L8.64219 15.4781H13.2344L19.4844 21.6797C13.9 27.2891 6.79531 34.4172 6.54531 34.6687C4.09688 37.1156 4.09219 41.125 6.59219 43.4578C9.03437 45.8672 13.0141 45.9297 15.3344 43.4578L15.3812 43.4078L25 33.7406L34.6687 43.4562L34.8141 43.5547C37.2672 45.8672 41.1688 45.8984 43.4578 43.4562V43.4094H43.5047C45.8984 40.9609 45.9234 36.9813 43.4578 34.6672L43.4078 34.6203L35.2547 26.5141C40.7406 26.0016 45.0375 21.3687 45.1172 15.7719H45.1656C45.1719 15.7406 45.1656 15.7047 45.1656 15.6734V15.625C45.3187 13.8188 44.9281 12.0906 43.9938 10.5953L42.9219 8.9375L35.6453 16.2125L33.4484 13.9172L40.8703 6.49531L38.7219 5.61719C37.3518 5.01301 35.8723 4.69658 34.375 4.6875C28.3687 4.6875 23.4375 9.61875 23.4375 15.625C23.4375 16.2781 23.5781 16.8453 23.6812 17.4313C22.9984 18.1156 22.4859 18.6766 21.6797 19.4828L15.4781 13.2812V8.64219L14.6969 8.20312L9.22813 4.93125L8.20312 4.29688ZM34.375 7.8125C34.5938 7.8125 34.7469 7.94062 34.9609 7.95937L29.0531 13.8672L30.1266 14.9906L34.5219 19.5312L35.5953 20.6547L41.7969 14.4531C41.8281 14.8125 42.0844 15.075 42.0406 15.4781V15.625C42.0406 19.9281 38.5312 23.4375 34.2281 23.4375C33.6547 23.4375 32.9594 23.3031 32.1781 23.1438L31.3469 22.9984L30.7609 23.5844L13.1359 41.2594H13.0859V41.3094C11.9766 42.5234 10.0344 42.5531 8.74062 41.2594V41.2109H8.69062C7.47656 40.1016 7.44687 38.1594 8.74062 36.8656C9.33281 36.2719 20.8 24.7062 26.4156 19.0922L27.0516 18.4578L26.8062 17.5781C26.6567 16.9374 26.575 16.2828 26.5625 15.625C26.5625 11.3219 30.0719 7.8125 34.375 7.8125ZM8.69062 8.20312L12.3531 10.45V12.0125L12.0125 12.3531H10.45L8.20312 8.69219L8.69062 8.20312ZM31.5422 27.1969L41.2609 36.8656V36.9141H41.3078C42.5234 38.0234 42.5531 39.9656 41.2609 41.2594H41.2109V41.3094C40.1016 42.5234 38.1594 42.5531 36.8656 41.2594L27.1969 31.5437L31.5422 27.1969Z" fill="#FD9A18" />
            </svg>
        </symbol>
        <symbol id="lightning" viewBox="0 0 50 50">
            <svg width="50" height="50" viewBox="0 0 50 50" fill="none" xmlns="http://www.w3.org/2000/svg">
                <path d="M22.0083 28.5583C22.0262 28.4116 22.0129 28.2627 21.9693 28.1214C21.9257 27.9801 21.8527 27.8496 21.7551 27.7385C21.6576 27.6274 21.5377 27.5381 21.4032 27.4765C21.2688 27.415 21.1229 27.3825 20.975 27.3812H14.5833C14.4105 27.3794 14.2408 27.335 14.0891 27.2521C13.9374 27.1692 13.8085 27.0503 13.7136 26.9058C13.6187 26.7613 13.5608 26.5957 13.545 26.4236C13.5292 26.2515 13.5559 26.0781 13.6229 25.9187L21.7625 6.90208C21.8397 6.71069 21.972 6.54653 22.1426 6.43043C22.3132 6.31433 22.5145 6.25154 22.7208 6.25H32.1333C32.8687 6.25 33.3708 7 33.1021 7.69583L28.4667 19.5958C28.403 19.7548 28.3791 19.927 28.3969 20.0973C28.4147 20.2677 28.4738 20.4311 28.569 20.5735C28.6642 20.7159 28.7926 20.8329 28.9433 20.9145C29.0939 20.9961 29.2621 21.0397 29.4333 21.0417H35.4167C36.275 21.0417 36.7646 22.0396 36.2458 22.7354L20.6833 43.6646C20.5542 43.8375 20.2854 43.7271 20.3083 43.5146L22.0083 28.5583Z" stroke="#FD9A18" stroke-width="3.5" stroke-linecap="round" stroke-linejoin="round" />
            </svg>
        </symbol>
        <symbol id="money-duotone" viewBox="0 0 50 50">
            <svg width="50" height="50" viewBox="0 0 50 50" fill="none" xmlns="http://www.w3.org/2000/svg">
                <path opacity="0.2" d="M31.25 25C31.25 26.2361 30.8834 27.4445 30.1967 28.4723C29.5099 29.5001 28.5338 30.3012 27.3918 30.7742C26.2497 31.2473 24.9931 31.3711 23.7807 31.1299C22.5683 30.8888 21.4547 30.2935 20.5806 29.4194C19.7065 28.5453 19.1112 27.4317 18.8701 26.2193C18.6289 25.0069 18.7527 23.7503 19.2258 22.6082C19.6988 21.4662 20.4999 20.4901 21.5277 19.8033C22.5555 19.1166 23.7639 18.75 25 18.75C26.6576 18.75 28.2473 19.4085 29.4194 20.5806C30.5915 21.7527 31.25 23.3424 31.25 25ZM39.0625 12.5C39.3933 14.4518 40.323 16.2524 41.7228 17.6522C43.1227 19.052 44.9232 19.9817 46.875 20.3125V12.5H39.0625ZM39.0625 37.5H46.875V29.6875C44.9232 30.0183 43.1227 30.948 41.7228 32.3478C40.323 33.7477 39.3933 35.5482 39.0625 37.5ZM3.125 29.6875V37.5H10.9375C10.6067 35.5482 9.67696 33.7477 8.27716 32.3478C6.87735 30.948 5.07679 30.0183 3.125 29.6875ZM3.125 20.3125C5.07679 19.9817 6.87735 19.052 8.27716 17.6522C9.67696 16.2524 10.6067 14.4518 10.9375 12.5H3.125V20.3125Z" fill="#FD9A18" />
                <path d="M25 17.1875C23.4548 17.1875 21.9444 17.6457 20.6596 18.5041C19.3748 19.3626 18.3735 20.5827 17.7822 22.0103C17.1909 23.4378 17.0362 25.0087 17.3376 26.5241C17.6391 28.0396 18.3831 29.4317 19.4757 30.5243C20.5683 31.6169 21.9604 32.3609 23.4759 32.6624C24.9913 32.9638 26.5622 32.8091 27.9897 32.2178C29.4173 31.6265 30.6374 30.6252 31.4959 29.3404C32.3543 28.0556 32.8125 26.5452 32.8125 25C32.8125 22.928 31.9894 20.9409 30.5243 19.4757C29.0591 18.0106 27.072 17.1875 25 17.1875ZM25 29.6875C24.0729 29.6875 23.1666 29.4126 22.3958 28.8975C21.6249 28.3824 21.0241 27.6504 20.6693 26.7938C20.3145 25.9373 20.2217 24.9948 20.4026 24.0855C20.5834 23.1762 21.0299 22.341 21.6854 21.6854C22.341 21.0299 23.1762 20.5834 24.0855 20.4026C24.9948 20.2217 25.9373 20.3145 26.7938 20.6693C27.6504 21.0241 28.3824 21.6249 28.8975 22.3958C29.4126 23.1666 29.6875 24.0729 29.6875 25C29.6875 26.2432 29.1936 27.4355 28.3146 28.3146C27.4355 29.1936 26.2432 29.6875 25 29.6875ZM46.875 10.9375H3.125C2.7106 10.9375 2.31317 11.1021 2.02015 11.3951C1.72712 11.6882 1.5625 12.0856 1.5625 12.5V37.5C1.5625 37.9144 1.72712 38.3118 2.02015 38.6049C2.31317 38.8979 2.7106 39.0625 3.125 39.0625H46.875C47.2894 39.0625 47.6868 38.8979 47.9799 38.6049C48.2729 38.3118 48.4375 37.9144 48.4375 37.5V12.5C48.4375 12.0856 48.2729 11.6882 47.9799 11.3951C47.6868 11.1021 47.2894 10.9375 46.875 10.9375ZM4.6875 14.0625H8.86133C8.05562 15.9368 6.56176 17.4306 4.6875 18.2363V14.0625ZM4.6875 35.9375V31.7637C6.56176 32.5694 8.05562 34.0632 8.86133 35.9375H4.6875ZM45.3125 35.9375H41.1387C41.9444 34.0632 43.4382 32.5694 45.3125 31.7637V35.9375ZM45.3125 28.4473C43.5383 28.9719 41.9235 29.932 40.6153 31.2403C39.307 32.5485 38.3469 34.1633 37.8223 35.9375H12.1777C11.6531 34.1633 10.693 32.5485 9.38473 31.2403C8.07648 29.932 6.46171 28.9719 4.6875 28.4473V21.5527C6.46171 21.0281 8.07648 20.068 9.38473 18.7597C10.693 17.4515 11.6531 15.8367 12.1777 14.0625H37.8223C38.3469 15.8367 39.307 17.4515 40.6153 18.7597C41.9235 20.068 43.5383 21.0281 45.3125 21.5527V28.4473ZM45.3125 18.2363C43.4382 17.4306 41.9444 15.9368 41.1387 14.0625H45.3125V18.2363Z" fill="#FD9A18" />
            </svg>
        </symbol>
        <symbol id="chef-toque-hat" viewBox="0 0 50 50">
            <svg width="50" height="50" viewBox="0 0 50 50" fill="none" xmlns="http://www.w3.org/2000/svg">
                <path d="M32.8834 7.42396C32.034 6.10503 30.8672 5.02034 29.4899 4.26927C28.1126 3.5182 26.5688 3.12476 25 3.125C23.4313 3.12476 21.8875 3.5182 20.5102 4.26927C19.1329 5.02034 17.9661 6.10503 17.1167 7.42396C16.1952 6.57246 15.0934 5.94003 13.8933 5.57384C12.6933 5.20766 11.4261 5.11717 10.1862 5.30913C8.94627 5.50109 7.76573 5.97054 6.73261 6.68246C5.69949 7.39439 4.84046 8.33041 4.2196 9.42069C3.59875 10.511 3.2321 11.7274 3.147 12.9791C3.0619 14.2309 3.26056 15.4857 3.72814 16.65C4.19573 17.8143 4.92018 18.858 5.84745 19.7032C6.77471 20.5483 7.88086 21.1733 9.08336 21.5312C9.67101 29.03 10.4281 36.5146 11.3542 43.9792C11.5313 45.3958 12.6573 46.4792 14.0834 46.5708C16.2563 46.7104 19.8959 46.875 25 46.875C30.1042 46.875 33.7438 46.7104 35.9167 46.5698C37.3427 46.4781 38.4688 45.3948 38.6459 43.9781C39.5719 36.5139 40.329 29.0297 40.9167 21.5312C42.1192 21.1733 43.2253 20.5483 44.1526 19.7032C45.0799 18.858 45.8043 17.8143 46.2719 16.65C46.7395 15.4857 46.9382 14.2309 46.8531 12.9791C46.768 11.7274 46.4013 10.511 45.7805 9.42069C45.1596 8.33041 44.3006 7.39439 43.2674 6.68246C42.2343 5.97054 41.0538 5.50109 39.8139 5.30913C38.574 5.11717 37.3068 5.20766 36.1067 5.57384C34.9067 5.94003 33.8048 6.57246 32.8834 7.42396Z" stroke="#FD9A18" stroke-width="3.5" stroke-linecap="round" stroke-linejoin="round" />
                <path d="M39.3261 38.9196C36.6626 38.7811 32.2053 38.6436 25.0001 38.6436C17.7948 38.6436 13.3365 38.7811 10.674 38.9196" stroke="#FD9A18" stroke-width="3.5" stroke-linecap="round" stroke-linejoin="round" />
                <path d="M19.7917 21.875L20.8334 30.2083M30.2084 21.875L29.1667 30.2083" stroke="#FD9A18" stroke-width="3.5" stroke-linecap="round" />
            </svg>
        </symbol>
        <symbol id="arrow-left" viewBox="0 0 24 24">
            <path d="M3.516 3.516c2.264-2.269 5.278-3.516 8.484-3.516s6.22 1.247 8.484 3.516c2.269 2.264 3.516 5.278 3.516 8.484s-1.247 6.22-3.516 8.484c-2.264 2.269-5.278 3.516-8.484 3.516s-6.22-1.247-8.484-3.516c-2.269-2.264-3.516-5.278-3.516-8.484s1.247-6.22 3.516-8.484zM12 22.739c5.92 0 10.739-4.819 10.739-10.739s-4.819-10.734-10.739-10.734-10.739 4.814-10.739 10.734 4.819 10.739 10.739 10.739z"></path>
            <path d="M4.608 11.555l5.053-5.053c0.248-0.248 0.647-0.248 0.895 0s0.248 0.647 0 0.895l-3.975 3.975h13.003c0.347 0 0.633 0.281 0.633 0.633s-0.281 0.633-0.633 0.633h-13.008l3.975 3.975c0.248 0.248 0.248 0.647 0 0.895-0.122 0.122-0.286 0.183-0.445 0.183s-0.323-0.061-0.445-0.188l-5.053-5.058c-0.248-0.244-0.248-0.647 0-0.891v0z"></path>
        </symbol>
        <symbol id="arrow-right" viewBox="0 0 24 24">
            <path d="M20.484 3.516c-2.264-2.269-5.278-3.516-8.484-3.516s-6.22 1.247-8.484 3.516c-2.269 2.264-3.516 5.278-3.516 8.484s1.247 6.22 3.516 8.484c2.264 2.269 5.278 3.516 8.484 3.516s6.22-1.247 8.484-3.516c2.269-2.264 3.516-5.278 3.516-8.484s-1.247-6.22-3.516-8.484zM12 22.739c-5.92 0-10.739-4.819-10.739-10.739s4.819-10.734 10.739-10.734 10.739 4.814 10.739 10.734-4.819 10.739-10.739 10.739z"></path>
            <path d="M19.392 11.555l-5.053-5.053c-0.248-0.248-0.647-0.248-0.895 0s-0.248 0.647 0 0.895l3.975 3.975h-12.998c-0.347 0-0.633 0.281-0.633 0.633s0.281 0.633 0.633 0.633h13.003l-3.975 3.975c-0.248 0.248-0.248 0.647 0 0.895 0.122 0.122 0.286 0.183 0.445 0.183s0.323-0.061 0.445-0.188l5.053-5.053c0.248-0.248 0.248-0.652 0-0.895v0z"></path>
        </symbol>
        <symbol id="book" viewBox="0 0 38 37">
            <svg width="38" height="37" viewBox="0 0 38 37" fill="none" xmlns="http://www.w3.org/2000/svg">
                <path d="M18.9999 9.25008C18.9999 9.25008 16.6874 6.16675 11.2916 6.16675C5.89575 6.16675 3.58325 9.25008 3.58325 9.25008V30.8334C3.58325 30.8334 5.89575 29.2917 11.2916 29.2917C16.6874 29.2917 18.9999 30.8334 18.9999 30.8334M18.9999 9.25008V30.8334M18.9999 9.25008C18.9999 9.25008 21.3124 6.16675 26.7083 6.16675C32.1041 6.16675 34.4166 9.25008 34.4166 9.25008V30.8334C34.4166 30.8334 32.1041 29.2917 26.7083 29.2917C21.3124 29.2917 18.9999 30.8334 18.9999 30.8334" stroke="white" stroke-width="3" stroke-linecap="round" stroke-linejoin="round" />
            </svg>
        </symbol>
        <symbol id="cheese" viewBox="0 0 24 24">
            <path d="M15.32 2c-0.228-0.034-0.462 0.012-0.66 0.13l-12 7c-0.048 0.027-0.091 0.061-0.13 0.1l-0.1 0.080c-0.068 0.079-0.125 0.166-0.17 0.26-0.071 0.132-0.106 0.28-0.1 0.43v10c0 0.265 0.105 0.52 0.293 0.707s0.442 0.293 0.707 0.293h18c0.265 0 0.52-0.105 0.707-0.293s0.293-0.442 0.293-0.707v-10c0.004-1.931-0.684-3.799-1.939-5.267s-2.993-2.437-4.901-2.733zM15.32 4.050c1.202 0.246 2.302 0.851 3.153 1.735s1.415 2.005 1.617 3.215h-13.23l8.46-4.95zM20.16 19h-16v-8h16v8z"></path>
            <path d="M6.66 18c0.828 0 1.5-0.672 1.5-1.5s-0.672-1.5-1.5-1.5c-0.828 0-1.5 0.672-1.5 1.5s0.672 1.5 1.5 1.5z"></path>
            <path d="M11.66 15c0.828 0 1.5-0.672 1.5-1.5s-0.672-1.5-1.5-1.5c-0.828 0-1.5 0.672-1.5 1.5s0.672 1.5 1.5 1.5z"></path>
            <path d="M17.16 18c1.105 0 2-0.895 2-2s-0.895-2-2-2c-1.105 0-2 0.895-2 2s0.895 2 2 2z"></path>
        </symbol>
        <symbol id="people" viewBox="0 0 34 33">
            <svg width="34" height="33" viewBox="0 0 34 33" fill="none" xmlns="http://www.w3.org/2000/svg">
                <path d="M10.0625 24.0156C12.9361 24.0156 15.2656 21.6861 15.2656 18.8125C15.2656 15.9389 12.9361 13.6094 10.0625 13.6094C7.18889 13.6094 4.85938 15.9389 4.85938 18.8125C4.85938 21.6861 7.18889 24.0156 10.0625 24.0156Z" stroke="white" stroke-width="3.5" stroke-linecap="round" stroke-linejoin="round" />
                <path d="M23.9375 12.4531C26.8111 12.4531 29.1406 10.1236 29.1406 7.25C29.1406 4.37639 26.8111 2.04688 23.9375 2.04688C21.0639 2.04688 18.7344 4.37639 18.7344 7.25C18.7344 10.1236 21.0639 12.4531 23.9375 12.4531Z" stroke="white" stroke-width="3.5" stroke-linecap="round" stroke-linejoin="round" />
                <path d="M16.4219 19.3906C16.4219 17.0781 18.1562 12.4531 23.9375 12.4531C29.7187 12.4531 31.4531 17.0781 31.4531 19.3906M2.54688 30.9531C2.54688 28.6406 4.28125 24.0156 10.0625 24.0156C15.8437 24.0156 17.5781 28.6406 17.5781 30.9531" stroke="white" stroke-width="3.5" stroke-linecap="round" stroke-linejoin="round" />
            </svg>
        </symbol>
        <symbol id="money" viewBox="0 0 36 24">
            <path d="M14.298 16.8h7.149v-1.8h-2.383v-8.4h-2.122l-2.755 2.569 1.434 1.5c0.521-0.462 0.863-0.819 1.024-1.069h0.037v5.4h-2.383v1.8zM23.829 12c0 0.875-0.13 1.762-0.391 2.662s-0.63 1.737-1.108 2.513c-0.478 0.775-1.108 1.406-1.89 1.894s-1.638 0.731-2.569 0.731c-0.931 0-1.787-0.244-2.569-0.731s-1.412-1.119-1.89-1.894c-0.478-0.775-0.847-1.613-1.108-2.513s-0.391-1.787-0.391-2.662c0-0.875 0.13-1.763 0.391-2.663s0.63-1.737 1.108-2.513c0.478-0.775 1.108-1.406 1.89-1.894s1.638-0.731 2.569-0.731c0.931 0 1.787 0.244 2.569 0.731s1.412 1.119 1.89 1.894c0.478 0.775 0.847 1.612 1.108 2.513s0.391 1.787 0.391 2.663zM33.361 16.8v-9.6c-1.316 0-2.439-0.469-3.37-1.406s-1.396-2.069-1.396-3.394h-21.447c0 1.325-0.465 2.456-1.396 3.394s-2.054 1.406-3.37 1.406v9.6c1.316 0 2.439 0.469 3.37 1.406s1.396 2.069 1.396 3.394h21.447c0-1.325 0.465-2.456 1.396-3.394s2.054-1.406 3.37-1.406zM35.744 1.2v21.6c0 0.325-0.118 0.606-0.354 0.844s-0.515 0.356-0.838 0.356h-33.362c-0.323 0-0.602-0.119-0.838-0.356s-0.354-0.519-0.354-0.844v-21.6c0-0.325 0.118-0.606 0.354-0.844s0.515-0.356 0.838-0.356h33.362c0.323 0 0.602 0.119 0.838 0.356s0.354 0.519 0.354 0.844z"></path>
        </symbol>
        <symbol id="fire" viewBox="0 0 24 24">
            <path d="M9.143 2.34c-0.761 0.68-5.143 4.866-5.143 11.66h2c0-5.921 3.843-9.604 4.475-10.167l-1.332-1.493zM14.056 8.218c-1.108-3.279-2.854-5.299-3.32-5.801l-1.465 1.362c0.35 0.376 1.901 2.157 2.889 5.080l1.896-0.641zM14.262 9.060c0.738-1.292 1.568-2.035 1.79-2.221l-1.281-1.536c-0.346 0.288-1.356 1.208-2.246 2.765l1.737 0.992zM14.947 6.838c0.443 0.37 3.053 2.74 3.053 7.103h2c0-5.223-3.128-8.1-3.77-8.637l-1.283 1.534zM18 13.941v0.059h2v-0.059h-2zM18 14c-0 0.788-0.155 1.568-0.457 2.296l1.848 0.765c0.402-0.97 0.609-2.010 0.609-3.061h-2zM17.543 16.296c-0.301 0.728-0.743 1.39-1.3 1.947l1.414 1.414c0.743-0.743 1.332-1.625 1.734-2.596l-1.848-0.765zM16.243 18.243c-0.557 0.557-1.219 0.999-1.947 1.3l0.766 1.848c0.97-0.402 1.852-0.991 2.595-1.734l-1.414-1.414zM14.296 19.543c-0.728 0.302-1.508 0.457-2.296 0.457v2c1.051 0 2.091-0.207 3.062-0.609l-0.766-1.848zM12 20c-0.788-0-1.568-0.155-2.296-0.457l-0.765 1.848c0.97 0.402 2.011 0.609 3.061 0.609v-2zM9.704 19.543c-0.728-0.301-1.39-0.743-1.947-1.3l-1.414 1.414c0.743 0.743 1.626 1.331 2.597 1.733l0.764-1.847zM7.757 18.243c-0.557-0.557-0.999-1.219-1.3-1.947l-1.848 0.765c0.402 0.971 0.991 1.853 1.734 2.596l1.414-1.414zM6.457 16.296c-0.302-0.728-0.457-1.508-0.457-2.296h-2c0 1.050 0.207 2.091 0.609 3.061l1.848-0.765zM16.052 6.839c-0.155 0.129-0.35 0.2-0.552 0.2s-0.398-0.071-0.553-0.2l1.283-1.535c-0.204-0.171-0.463-0.265-0.73-0.265s-0.525 0.093-0.729 0.264l1.281 1.536zM12.161 8.859c0.325 0.958 1.616 1.052 2.101 0.201l-1.737-0.992c0.354-0.618 1.292-0.557 1.531 0.15l-1.895 0.641zM10.475 3.833c-0.168 0.15-0.388 0.229-0.613 0.219s-0.438-0.108-0.592-0.272l1.464-1.362c-0.202-0.219-0.482-0.349-0.78-0.364s-0.589 0.089-0.811 0.287l1.332 1.492z"></path>
            <path d="M15.958 16.418l-0.995 0.104 0.006 0.040 0.989-0.144zM8.042 16.418l0.99 0.145 0.005-0.040-0.995-0.105zM10.831 10.631c-0.777 0.623-1.484 1.327-2.111 2.1-0.74 0.93-1.459 2.135-1.663 3.506l1.978 0.295c0.132-0.883 0.618-1.762 1.25-2.554 0.535-0.658 1.138-1.258 1.8-1.789l-1.254-1.558zM13.169 10.631c-0.331-0.268-0.743-0.414-1.169-0.414s-0.838 0.146-1.169 0.414l1.254 1.558c-0.025 0.018-0.054 0.028-0.085 0.028s-0.061-0.010-0.085-0.028l1.254-1.558zM16.943 16.237c-0.204-1.371-0.922-2.576-1.663-3.505-0.627-0.773-1.335-1.477-2.111-2.1l-1.254 1.557c0.662 0.531 1.265 1.131 1.8 1.789 0.632 0.792 1.118 1.671 1.25 2.554l1.978-0.295zM16.953 16.315l-0.010-0.078-1.978 0.295-0.002-0.010 1.99-0.207zM14.969 16.562c0.020 0.142 0.030 0.289 0.031 0.438h2c0-0.243-0.017-0.486-0.052-0.726l-1.979 0.288zM15 17c0 0.796-0.316 1.559-0.879 2.121s-1.326 0.879-2.121 0.879v2c1.326 0 2.598-0.527 3.536-1.464s1.464-2.209 1.464-3.536h-2zM12 20c-0.796 0-1.559-0.316-2.121-0.879s-0.879-1.326-0.879-2.121h-2c0 1.326 0.527 2.598 1.464 3.536s2.209 1.464 3.536 1.464v-2zM9 17c0-0.149 0.011-0.295 0.032-0.437l-1.98-0.289c-0.034 0.238-0.051 0.48-0.052 0.726h2zM7.057 16.237l-0.010 0.078 1.99 0.207-0.002 0.010-1.978-0.295z"></path>
        </symbol>
        <symbol id="mail" viewBox="0 0 44 24">
            <path d="M40.174.13H16.435a3.662 3.662 0 0 0-3.652 3.652v16.435a3.656 3.656 0 0 0 3.652 3.652h23.739a3.64 3.64 0 0 0 3.652-3.652V3.782A3.656 3.656 0 0 0 40.174.13zm0 20.087H16.435V6.832l11.87 6.081 11.87-6.081v13.385zm-11.87-10.39-11.87-6.044h23.739l-11.87 6.044zM9.13 20.217c0 .31.055.603.091.913H1.825c-1.008 0-1.826-.822-1.826-1.826s.818-1.826 1.826-1.826h7.304v2.739zM5.478 2.87h3.743c-.037.31-.091.603-.091.913v2.739H5.478c-1.004 0-1.826-.822-1.826-1.826S4.474 2.87 5.478 2.87zM1.826 12c0-1.004.822-1.826 1.826-1.826H9.13v3.652H3.652A1.832 1.832 0 0 1 1.826 12z"/>
        </symbol>
        <symbol id="facebook" viewBox="0 0 24 24">
            <path fill="#3d5a98" d="M21.872.906H2.13C1.454.906.906 1.454.906 2.13v19.742c0 .676.548 1.224 1.224 1.224h19.742c.676 0 1.224-.548 1.224-1.224V2.13c0-.676-.548-1.224-1.224-1.224z" style="fill:var(--color1, #3d5a98)"/>
            <path fill="#fff" d="M16.215 23.094v-8.593h2.884l.431-3.349h-3.315V9.015c0-.969.27-1.631 1.659-1.631h1.774v-3a24.01 24.01 0 0 0-2.586-.128c-2.554 0-4.313 1.556-4.313 4.427v2.469H9.865v3.349h2.884v8.593h3.465z" style="fill:var(--color2, #fff)"/>
        </symbol>
        <symbol id="link" viewBox="0 0 80 24">
            <path fill="#a6a6a6" d="M77.488 23.802H2.826a2.816 2.816 0 0 1-2.818-2.818V2.817A2.816 2.816 0 0 1 2.826-.001h74.662c1.557 0 2.853 1.26 2.853 2.818v18.167c0 1.558-1.312 2.818-2.853 2.818z" style="fill:var(--color3, #a6a6a6)"/>
            <path d="M79.763 20.984a2.27 2.27 0 0 1-2.275 2.275H2.826a2.286 2.286 0 0 1-2.293-2.275V2.817A2.274 2.274 0 0 1 2.826.542h74.662a2.27 2.27 0 0 1 2.275 2.275v18.167z" style="fill:var(--color4, #000)"/>
            <path fill="#fff" d="M17.93 11.779c-.018-1.925 1.575-2.853 1.645-2.888-.893-1.313-2.293-1.488-2.783-1.505-1.173-.122-2.31.7-2.905.7-.613 0-1.523-.683-2.52-.665-1.278.017-2.468.753-3.115 1.908-1.348 2.328-.35 5.758.945 7.648.648.928 1.4 1.96 2.398 1.925.963-.035 1.33-.613 2.503-.613 1.155 0 1.488.613 2.503.595 1.033-.018 1.698-.928 2.31-1.855.753-1.068 1.05-2.1 1.05-2.153-.017-.052-2.013-.805-2.03-3.098zM16.04 6.126c.525-.648.875-1.54.77-2.433-.753.035-1.698.525-2.24 1.155-.473.56-.91 1.488-.805 2.345.858.07 1.733-.42 2.275-1.068zM31.932 18.744h-1.348l-.735-2.328h-2.573l-.7 2.328h-1.313l2.555-7.911h1.575l2.538 7.911zm-2.311-3.308-.665-2.065c-.07-.21-.21-.7-.403-1.488h-.017c-.07.333-.21.84-.368 1.488l-.665 2.065h2.118zM38.495 15.821c0 .963-.263 1.733-.788 2.31-.472.508-1.05.753-1.75.753-.753 0-1.295-.263-1.628-.805h-.018v3.01h-1.26v-6.161c0-.613-.017-1.243-.053-1.873h1.12l.07.91h.018c.42-.683 1.068-1.015 1.925-1.015a2.08 2.08 0 0 1 1.68.805c.455.49.683 1.19.683 2.065zm-1.295.053c0-.56-.122-1.015-.368-1.383-.28-.368-.648-.56-1.103-.56-.315 0-.595.105-.858.315s-.42.473-.508.823c-.035.158-.052.28-.052.385v.945c0 .42.123.77.385 1.05s.578.438.998.438c.473 0 .858-.193 1.12-.56.245-.368.385-.858.385-1.453zM45.058 15.821c0 .963-.263 1.733-.788 2.31-.472.508-1.05.753-1.75.753-.753 0-1.295-.263-1.628-.805h-.018v3.01h-1.26v-6.161c0-.613-.017-1.243-.053-1.873h1.12l.07.91h.018c.42-.683 1.068-1.015 1.925-1.015a2.08 2.08 0 0 1 1.68.805c.455.49.683 1.19.683 2.065zm-1.295.053c0-.56-.123-1.015-.385-1.383-.28-.368-.648-.56-1.102-.56-.315 0-.595.105-.858.315s-.42.473-.49.823c-.035.158-.053.28-.053.385v.945c0 .42.123.77.385 1.05s.578.438.998.438c.472 0 .858-.193 1.12-.56.245-.368.385-.858.385-1.453zM52.391 16.521c0 .665-.228 1.225-.7 1.645-.507.455-1.243.7-2.153.7-.857 0-1.54-.158-2.048-.49l.298-1.05c.56.333 1.173.508 1.837.508.472 0 .858-.105 1.12-.315s.403-.508.403-.858c0-.315-.105-.595-.332-.805-.21-.228-.578-.42-1.085-.613-1.383-.525-2.083-1.278-2.083-2.275 0-.648.245-1.19.735-1.593.49-.42 1.138-.63 1.943-.63.717 0 1.312.123 1.803.368l-.315 1.033a3.112 3.112 0 0 0-1.523-.368c-.455 0-.788.105-1.05.333a.944.944 0 0 0-.315.718c0 .315.123.578.368.77.21.193.595.385 1.155.613.683.28 1.19.595 1.505.963.28.35.438.805.438 1.348zM56.591 13.984h-1.4v2.765c0 .7.245 1.05.735 1.05.227 0 .42-.018.56-.052l.035.963c-.245.088-.577.14-.98.14-.508 0-.893-.158-1.173-.455s-.42-.823-.42-1.54v-2.87h-.84v-.945h.84v-1.05l1.243-.368v1.418h1.4v.945zM62.892 15.839c0 .875-.245 1.593-.753 2.17-.525.578-1.225.875-2.1.875-.84 0-1.505-.28-1.995-.84s-.753-1.26-.753-2.1c0-.893.263-1.61.77-2.17s1.208-.84 2.065-.84c.84 0 1.505.28 2.013.84.525.525.753 1.225.753 2.065zm-1.313.052c0-.525-.105-.98-.333-1.348-.262-.455-.648-.683-1.137-.683-.508 0-.893.228-1.155.683-.227.385-.333.84-.333 1.383 0 .525.105.98.333 1.348.28.455.665.683 1.155.683s.857-.228 1.137-.7c.228-.385.333-.84.333-1.365zM67.022 14.159a2.964 2.964 0 0 0-.403-.035c-.437 0-.788.175-1.033.508-.21.298-.315.665-.315 1.12v2.993h-1.26l.018-3.92c0-.665-.018-1.26-.053-1.803h1.103l.053 1.085h.035c.14-.367.35-.683.63-.91.28-.21.595-.298.91-.298.123 0 .227 0 .315.017v1.243zM72.693 15.629c0 .228-.017.42-.052.578h-3.798c.017.56.192.998.56 1.295.315.263.735.403 1.243.403.56 0 1.085-.087 1.54-.263l.192.875c-.542.228-1.173.35-1.907.35-.893 0-1.575-.263-2.083-.788s-.752-1.225-.752-2.1c0-.858.227-1.575.7-2.153.49-.613 1.155-.91 1.995-.91.823 0 1.453.298 1.873.91.332.49.49 1.085.49 1.803zm-1.208-.333c0-.367-.07-.7-.245-.98-.227-.35-.56-.525-1.015-.525-.42 0-.753.175-1.015.525-.21.28-.333.595-.368.98h2.643zM29.201 5.951c0 .7-.21 1.225-.63 1.575-.385.333-.945.49-1.663.49-.35 0-.665-.018-.91-.053V4.13a6.708 6.708 0 0 1 1.068-.088c.683 0 1.19.14 1.54.438.403.368.595.858.595 1.47zm-.665.017c0-.455-.123-.805-.368-1.05s-.595-.368-1.05-.368c-.193 0-.368.018-.508.035V7.49c.07.018.21.018.42.018.473 0 .84-.14 1.103-.403s.403-.63.403-1.138zM32.684 6.563c0 .438-.122.788-.368 1.068-.263.28-.595.42-1.033.42-.42 0-.735-.14-.98-.403-.245-.28-.368-.613-.368-1.033 0-.438.123-.788.385-1.068.245-.28.595-.42 1.015-.42s.735.14.998.403c.228.28.35.613.35 1.033zm-.648.018c0-.263-.052-.473-.175-.665-.123-.228-.315-.333-.56-.333s-.438.105-.578.333a1.362 1.362 0 0 0-.175.683c0 .262.052.473.175.665.14.227.315.333.56.333s.42-.105.56-.35c.14-.175.193-.403.193-.665zM37.357 5.18l-.875 2.8h-.578l-.368-1.225a8.702 8.702 0 0 1-.227-.91h-.018a5.27 5.27 0 0 1-.228.91l-.385 1.225H34.1l-.823-2.8h.648l.315 1.33c.07.315.14.613.193.893h.017c.053-.228.123-.525.228-.893l.403-1.348h.508l.385 1.313c.087.315.175.63.227.928h.018c.035-.28.105-.595.193-.928l.333-1.313.613.018zM40.595 7.998h-.63v-1.61c0-.49-.193-.735-.56-.735-.193 0-.333.07-.455.21s-.175.298-.175.473v1.663h-.63V6.004c0-.245 0-.508-.017-.805h.543l.035.438h.018a.825.825 0 0 1 .315-.333c.175-.105.35-.158.56-.158.263 0 .473.087.648.263.21.21.315.525.315.928V8h.035zM42.31 7.998h-.63V3.903h.63v4.095zM45.985 6.563c0 .438-.123.788-.368 1.068-.262.28-.595.42-1.032.42-.42 0-.735-.14-.98-.403-.245-.28-.368-.613-.368-1.033 0-.438.123-.788.385-1.068.245-.28.595-.42 1.015-.42s.735.14.997.403c.227.28.35.613.35 1.033zm-.648.018c0-.263-.052-.473-.175-.665-.123-.228-.315-.333-.56-.333s-.438.105-.578.333a1.362 1.362 0 0 0-.175.683c0 .262.053.473.175.665.14.227.315.333.56.333s.42-.105.56-.35c.14-.175.192-.403.192-.665zM48.995 7.998h-.56l-.053-.315h-.017c-.192.262-.472.385-.823.385a.87.87 0 0 1-.648-.263.854.854 0 0 1-.227-.578c0-.35.14-.613.437-.788.28-.175.683-.263 1.208-.263v-.053c0-.368-.192-.56-.578-.56-.28 0-.525.07-.735.21l-.123-.403c.262-.158.577-.245.963-.245.735 0 1.103.385 1.103 1.155v1.033c.017.298.035.508.052.683zm-.647-.962v-.438c-.683-.018-1.032.175-1.032.56 0 .14.035.263.123.333s.175.105.297.105c.14 0 .263-.035.385-.122s.192-.193.21-.333c.017-.035.017-.07.017-.105zM52.548 7.998h-.56l-.035-.455h-.018c-.175.35-.472.508-.893.508-.332 0-.613-.14-.84-.403s-.333-.613-.333-1.033c0-.455.123-.823.368-1.103.228-.262.525-.385.858-.385.385 0 .648.123.787.385h.018v-1.61h.63v3.343c-.017.263 0 .525.018.753zm-.647-1.19v-.473c0-.088 0-.14-.018-.193-.035-.158-.105-.28-.227-.385s-.262-.158-.42-.158c-.228 0-.42.087-.543.28-.14.193-.192.42-.192.718 0 .28.07.508.192.683.14.193.315.28.543.28.21 0 .367-.07.49-.228a.901.901 0 0 0 .175-.525zM57.869 6.563c0 .438-.123.788-.368 1.068-.262.28-.595.42-1.032.42-.403 0-.735-.14-.98-.403-.245-.28-.368-.613-.368-1.033 0-.438.123-.788.385-1.068.245-.28.595-.42 1.015-.42.403 0 .735.14.998.403.245.28.35.613.35 1.033zm-.63.018c0-.263-.053-.473-.175-.665-.14-.228-.315-.333-.56-.333s-.437.105-.578.333a1.362 1.362 0 0 0-.175.683c0 .262.053.473.175.665.14.227.315.333.56.333s.42-.105.56-.35c.123-.175.193-.403.193-.665zM61.229 7.998h-.63v-1.61c0-.49-.192-.735-.56-.735-.192 0-.333.07-.455.21s-.175.298-.175.473v1.663h-.63V6.004c0-.245 0-.508-.017-.805h.542l.035.438h.018a.825.825 0 0 1 .315-.333c.175-.105.35-.158.56-.158a.87.87 0 0 1 .648.263c.21.21.315.525.315.928V8h.035zM65.429 5.653h-.683v1.365c0 .35.123.525.368.525.105 0 .21-.017.28-.035l.017.473c-.123.053-.28.07-.49.07-.245 0-.437-.07-.577-.227s-.21-.403-.21-.753V5.653h-.42V5.18h.403v-.508l.613-.193v.7h.683l.018.473zM68.72 7.998h-.63V6.405c0-.508-.193-.753-.56-.753-.297 0-.49.14-.595.438-.017.07-.035.14-.035.228v1.68h-.63V3.903h.63v1.698h.018c.192-.315.472-.455.84-.455.262 0 .472.087.648.262.21.21.315.525.315.945v1.645zM72.132 6.458c0 .105 0 .21-.017.28h-1.873c0 .28.105.49.262.63a.99.99 0 0 0 .613.193c.28 0 .525-.053.753-.14l.105.438c-.263.123-.578.175-.945.175-.437 0-.77-.123-1.032-.385-.245-.263-.368-.595-.368-1.033 0-.42.123-.77.35-1.05.245-.298.56-.455.98-.455.403 0 .717.158.91.455.175.245.262.543.262.893zm-.595-.157c0-.193-.035-.35-.123-.473-.105-.175-.28-.263-.49-.263s-.368.088-.49.263c-.105.14-.157.298-.192.49 0-.018 1.295-.018 1.295-.018z" style="fill:var(--color2, #fff)"/>
        </symbol>
        <symbol id="instagram" viewBox="0 0 40 40">
            <path d="M30.625 0H9.375C4.19733 0 0 4.19733 0 9.375V30.625C0 35.8027 4.19733 40 9.375 40H30.625C35.8027 40 40 35.8027 40 30.625V9.375C40 4.19733 35.8027 0 30.625 0Z" fill="url(#paint0_radial_184_7138)"/>
            <path d="M30.625 0H9.375C4.19733 0 0 4.19733 0 9.375V30.625C0 35.8027 4.19733 40 9.375 40H30.625C35.8027 40 40 35.8027 40 30.625V9.375C40 4.19733 35.8027 0 30.625 0Z" fill="url(#paint1_radial_184_7138)"/>
            <path d="M20.0014 4.375C15.758 4.375 15.2253 4.39359 13.5588 4.46938C11.8953 4.54563 10.7598 4.80891 9.76641 5.19531C8.73859 5.59438 7.86688 6.12828 6.99844 6.99703C6.12922 7.86562 5.59531 8.73734 5.195 9.76469C4.8075 10.7584 4.54391 11.8944 4.46906 13.557C4.39453 15.2238 4.375 15.7566 4.375 20.0002C4.375 24.2438 4.39375 24.7747 4.46938 26.4412C4.54594 28.1047 4.80922 29.2402 5.19531 30.2336C5.59469 31.2614 6.12859 32.1331 6.99734 33.0016C7.86563 33.8708 8.73734 34.4059 9.76438 34.805C10.7586 35.1914 11.8942 35.4547 13.5573 35.5309C15.2241 35.6067 15.7563 35.6253 19.9995 35.6253C24.2434 35.6253 24.7744 35.6067 26.4409 35.5309C28.1044 35.4547 29.2411 35.1914 30.2353 34.805C31.2627 34.4059 32.1331 33.8708 33.0012 33.0016C33.8705 32.1331 34.4042 31.2614 34.8047 30.2341C35.1887 29.2402 35.4525 28.1044 35.5306 26.4416C35.6055 24.775 35.625 24.2438 35.625 20.0002C35.625 15.7566 35.6055 15.2241 35.5306 13.5573C35.4525 11.8939 35.1887 10.7586 34.8047 9.76516C34.4042 8.73734 33.8705 7.86562 33.0012 6.99703C32.1322 6.12797 31.263 5.59406 30.2344 5.19547C29.2383 4.80891 28.1022 4.54547 26.4387 4.46938C24.772 4.39359 24.2414 4.375 19.9966 4.375H20.0014ZM18.5997 7.19078C19.0158 7.19016 19.48 7.19078 20.0014 7.19078C24.1734 7.19078 24.6678 7.20578 26.3153 7.28063C27.8387 7.35031 28.6656 7.60484 29.2164 7.81875C29.9456 8.10188 30.4655 8.44047 31.012 8.9875C31.5589 9.53438 31.8973 10.0552 32.1813 10.7844C32.3952 11.3344 32.65 12.1613 32.7194 13.6847C32.7942 15.3319 32.8105 15.8266 32.8105 19.9966C32.8105 24.1666 32.7942 24.6614 32.7194 26.3084C32.6497 27.8319 32.3952 28.6587 32.1813 29.2089C31.8981 29.9381 31.5589 30.4573 31.012 31.0039C30.4652 31.5508 29.9459 31.8892 29.2164 32.1725C28.6663 32.3873 27.8387 32.6413 26.3153 32.7109C24.6681 32.7858 24.1734 32.802 20.0014 32.802C15.8292 32.802 15.3347 32.7858 13.6877 32.7109C12.1642 32.6406 11.3373 32.3861 10.7861 32.1722C10.057 31.8889 9.53609 31.5505 8.98922 31.0036C8.44234 30.4567 8.10391 29.9372 7.82 29.2077C7.60609 28.6575 7.35125 27.8306 7.28188 26.3072C7.20703 24.66 7.19203 24.1653 7.19203 19.9927C7.19203 15.82 7.20703 15.328 7.28188 13.6808C7.35156 12.1573 7.60609 11.3305 7.82 10.7797C8.10328 10.0505 8.44234 9.52969 8.98938 8.98281C9.53641 8.43594 10.057 8.09734 10.7862 7.81359C11.337 7.59875 12.1642 7.34484 13.6877 7.27484C15.1291 7.20969 15.6877 7.19016 18.5997 7.18687V7.19078ZM28.342 9.78516C27.3069 9.78516 26.467 10.6242 26.467 11.6595C26.467 12.6947 27.3069 13.5345 28.342 13.5345C29.3772 13.5345 30.217 12.6947 30.217 11.6595C30.217 10.6244 29.3772 9.78453 28.342 9.78453V9.78516ZM20.0014 11.9759C15.5702 11.9759 11.9773 15.5688 11.9773 20.0002C11.9773 24.4316 15.5702 28.0227 20.0014 28.0227C24.4328 28.0227 28.0244 24.4316 28.0244 20.0002C28.0244 15.5689 24.4325 11.9759 20.0011 11.9759H20.0014ZM20.0014 14.7917C22.8778 14.7917 25.2098 17.1234 25.2098 20.0002C25.2098 22.8766 22.8778 25.2086 20.0014 25.2086C17.125 25.2086 14.7931 22.8766 14.7931 20.0002C14.7931 17.1234 17.1248 14.7917 20.0014 14.7917Z" fill="white"/>
            <defs>
                <radialGradient id="paint0_radial_184_7138" cx="0" cy="0" r="1" gradientUnits="userSpaceOnUse" gradientTransform="translate(10.625 43.0808) rotate(-90) scale(39.643 36.8711)">
                    <stop stop-color="#FFDD55"/>
                    <stop offset="0.1" stop-color="#FFDD55"/>
                    <stop offset="0.5" stop-color="#FF543E"/>
                    <stop offset="1" stop-color="#C837AB"/>
                </radialGradient>
                <radialGradient id="paint1_radial_184_7138" cx="0" cy="0" r="1" gradientUnits="userSpaceOnUse" gradientTransform="translate(-6.70016 2.88141) rotate(78.681) scale(17.7206 73.045)">
                    <stop stop-color="#3771C8"/>
                    <stop offset="0.128" stop-color="#3771C8"/>
                    <stop offset="1" stop-color="#6600FF" stop-opacity="0"/>
                </radialGradient>
            </defs>
        </symbol>
        <symbol id="youtube" viewBox="0 0 34 24">
            <path fill="#f00" d="M33.529 3.743c-.197-.724-.58-1.383-1.113-1.913S31.221.918 30.494.722C27.833 0 17.125 0 17.125 0S6.416.022 3.756.744c-.727.196-1.389.578-1.922 1.108S.918 3.042.721 3.765C-.084 8.471-.396 15.643.743 20.161c.197.724.58 1.383 1.113 1.913s1.195.912 1.922 1.108c2.661.722 13.369.722 13.369.722s10.708 0 13.369-.722c.727-.196 1.389-.578 1.922-1.108s.916-1.19 1.113-1.913c.849-4.713 1.11-11.88-.022-16.418z" style="fill:var(--color5, #f00)"/>
            <path fill="#fff" d="m13.717 17.074 8.883-5.122-8.883-5.122v10.245z" style="fill:var(--color2, #fff)"/>
        </symbol>
        <symbol id="twitter" viewBox="0 0 24 24">
            <path fill="#fff" d="M18.375 0H5.625A5.624 5.624 0 0 0 0 5.625v12.75A5.624 5.624 0 0 0 5.625 24h12.75A5.624 5.624 0 0 0 24 18.375V5.625A5.624 5.624 0 0 0 18.375 0z" style="fill:var(--color2, #fff)"/>
            <path fill="#1d9bf0" d="M18.375 0H5.625A5.624 5.624 0 0 0 0 5.625v12.75A5.624 5.624 0 0 0 5.625 24h12.75A5.624 5.624 0 0 0 24 18.375V5.625A5.624 5.624 0 0 0 18.375 0z" style="fill:var(--color6, #1d9bf0)"/>
            <path fill="#fff" d="M18.71 8.57c.01.149.01.298.01.448 0 4.575-3.483 9.851-9.851 9.851v-.003a9.798 9.798 0 0 1-5.307-1.552 6.955 6.955 0 0 0 5.124-1.435 3.467 3.467 0 0 1-3.234-2.404c.519.1 1.053.08 1.563-.06a3.462 3.462 0 0 1-2.777-3.394v-.044c.481.268 1.02.417 1.571.433a3.468 3.468 0 0 1-1.072-4.623 9.835 9.835 0 0 0 7.135 3.617 3.465 3.465 0 0 1 5.9-3.158 6.957 6.957 0 0 0 2.199-.84 3.471 3.471 0 0 1-1.522 1.915 6.9 6.9 0 0 0 1.988-.545 7.031 7.031 0 0 1-1.728 1.793z" style="fill:var(--color2, #fff)"/>
        </symbol>
        <symbol id="brain" viewBox="0 0 124 124" >
            <svg width="124" height="124" viewBox="0 0 124 124" fill="none" xmlns="http://www.w3.org/2000/svg">
                <path d="M113.667 56.8334C113.681 53.1917 112.733 49.6108 110.918 46.4534C109.104 43.296 106.487 40.6742 103.333 38.8534C103.411 37.9595 103.411 37.0606 103.333 36.1667C103.333 32.0558 101.7 28.1133 98.7935 25.2065C95.8867 22.2997 91.9442 20.6667 87.8333 20.6667H86.9033C86.0429 18.2813 84.6104 16.1434 82.7315 14.4406C80.8525 12.7377 78.5844 11.5219 76.1261 10.8996C73.6678 10.2774 71.0944 10.2678 68.6316 10.8717C66.1687 11.4756 63.8916 12.6745 62 14.3634C60.1084 12.6745 57.8313 11.4756 55.3684 10.8717C52.9056 10.2678 50.3322 10.2774 47.8739 10.8996C45.4156 11.5219 43.1475 12.7377 41.2685 14.4406C39.3896 16.1434 37.9571 18.2813 37.0967 20.6667H36.1667C32.0558 20.6667 28.1133 22.2997 25.2065 25.2065C22.2997 28.1133 20.6667 32.0558 20.6667 36.1667C20.5889 37.0606 20.5889 37.9595 20.6667 38.8534C17.7344 40.5108 15.2516 42.8598 13.4346 45.6959C11.6175 48.5321 10.5212 51.7694 10.241 55.126C9.9609 58.4826 10.5054 61.8568 11.8272 64.9549C13.149 68.053 15.208 70.7811 17.825 72.9017C16.1317 76.0599 15.2888 79.6041 15.3788 83.1865C15.4689 86.7688 16.4889 90.2662 18.3387 93.3353C20.1885 96.4045 22.8046 98.9399 25.9301 100.693C29.0556 102.446 32.5832 103.356 36.1667 103.333H37.0967C37.9571 105.719 39.3896 107.857 41.2685 109.559C43.1475 111.262 45.4156 112.478 47.8739 113.1C50.3322 113.723 52.9056 113.732 55.3684 113.128C57.8313 112.524 60.1084 111.326 62 109.637C63.8916 111.326 66.1687 112.524 68.6316 113.128C71.0944 113.732 73.6678 113.723 76.1261 113.1C78.5844 112.478 80.8525 111.262 82.7315 109.559C84.6104 107.857 86.0429 105.719 86.9033 103.333H87.8333C91.3949 103.311 94.8901 102.368 97.9801 100.597C101.07 98.826 103.65 96.2863 105.469 93.2245C107.289 90.1627 108.286 86.6826 108.364 83.1219C108.443 79.5612 107.6 76.0406 105.917 72.9017C108.327 70.9722 110.274 68.5274 111.615 65.7468C112.956 62.9662 113.657 59.9205 113.667 56.8334ZM56.8333 44.175C55.7054 43.5366 54.5309 42.9839 53.32 42.5217C52.0182 42.0832 50.5956 42.1798 49.365 42.7902C48.1345 43.4007 47.1968 44.4749 46.7583 45.7767C46.3198 47.0785 46.4164 48.5011 47.0269 49.7317C47.6373 50.9622 48.7116 51.8999 50.0133 52.3384C52.0022 53.0574 53.7226 54.3693 54.9422 56.0971C56.1618 57.8248 56.8218 59.8852 56.8333 62V70.0084C55.7054 69.3699 54.5309 68.8172 53.32 68.355C52.0182 67.9165 50.5956 68.0131 49.365 68.6236C48.1345 69.234 47.1968 70.3082 46.7583 71.61C46.3198 72.9118 46.4164 74.3344 47.0269 75.565C47.6373 76.7955 48.7116 77.7332 50.0133 78.1717C52.0022 78.8907 53.7226 80.2027 54.9422 81.9304C56.1618 83.6582 56.8218 85.7185 56.8333 87.8334V98.1667C56.8333 99.537 56.289 100.851 55.3201 101.82C54.3511 102.789 53.037 103.333 51.6667 103.333C50.6671 103.327 49.6909 103.03 48.8563 102.48C48.0218 101.93 47.3648 101.15 46.965 100.233C47.832 99.7261 48.6609 99.1562 49.445 98.5284C49.9674 98.0941 50.3992 97.5612 50.7157 96.9601C51.0322 96.359 51.2272 95.7014 51.2896 95.025C51.352 94.3485 51.2805 93.6664 51.0792 93.0175C50.878 92.3687 50.5509 91.7658 50.1167 91.2434C49.6824 90.7209 49.1495 90.2891 48.5484 89.9726C47.9473 89.6561 47.2897 89.4611 46.6133 89.3987C45.9368 89.3364 45.2547 89.4079 44.6058 89.6091C43.957 89.8104 43.3541 90.1375 42.8317 90.5717C40.9661 92.1422 38.6053 93.0024 36.1667 93C33.4261 93 30.7978 91.9113 28.8599 89.9735C26.922 88.0356 25.8333 85.4073 25.8333 82.6667C25.8581 80.7219 26.4311 78.8236 27.4867 77.19C28.6468 77.3933 29.8222 77.497 31 77.5C32.3703 77.5 33.6844 76.9557 34.6534 75.9867C35.6223 75.0178 36.1667 73.7036 36.1667 72.3334C36.1667 70.9631 35.6223 69.6489 34.6534 68.68C33.6844 67.711 32.3703 67.1667 31 67.1667C29.7791 67.179 28.5677 66.9508 27.435 66.495C25.5768 65.8248 23.9496 64.6361 22.7462 63.0696C21.5428 61.503 20.8137 59.6244 20.6451 57.6562C20.4766 55.6881 20.8757 53.7128 21.7952 51.9645C22.7147 50.2162 24.1161 48.7681 25.8333 47.7917C26.5655 48.4696 27.3614 49.0751 28.21 49.6C29.4021 50.2852 30.8176 50.4687 32.1451 50.1102C33.4725 49.7517 34.6032 48.8805 35.2883 47.6884C35.9735 46.4962 36.157 45.0807 35.7985 43.7533C35.44 42.4258 34.5688 41.2952 33.3767 40.61C32.6493 40.2088 32.0428 39.6201 31.62 38.905C31.1361 38.0779 30.9196 37.1215 31 36.1667C31 34.7964 31.5443 33.4822 32.5133 32.5133C33.4822 31.5444 34.7964 31 36.1667 31C36.5268 30.9523 36.8916 30.9523 37.2517 31C37.5272 31.8294 37.8551 32.6405 38.2333 33.4284C38.5709 34.0204 39.0222 34.5398 39.5613 34.9567C40.1005 35.3735 40.7167 35.6796 41.3746 35.8573C42.0326 36.035 42.7192 36.0808 43.3948 35.992C44.0705 35.9032 44.722 35.6816 45.3117 35.34C46.4571 34.6508 47.2909 33.5445 47.6378 32.2534C47.9846 30.9624 47.8175 29.5871 47.1717 28.4167C46.7381 27.6241 46.5074 26.7367 46.5 25.8334C46.5 24.4631 47.0443 23.1489 48.0133 22.18C48.9822 21.211 50.2964 20.6667 51.6667 20.6667C53.037 20.6667 54.3511 21.211 55.3201 22.18C56.289 23.1489 56.8333 24.4631 56.8333 25.8334V44.175ZM96.565 66.495C95.4323 66.9508 94.2209 67.179 93 67.1667C91.6297 67.1667 90.3156 67.711 89.3466 68.68C88.3777 69.6489 87.8333 70.9631 87.8333 72.3334C87.8333 73.7036 88.3777 75.0178 89.3466 75.9867C90.3156 76.9557 91.6297 77.5 93 77.5C94.1778 77.497 95.3532 77.3933 96.5133 77.19C97.5689 78.8236 98.1419 80.7219 98.1667 82.6667C98.1667 85.4073 97.078 88.0356 95.1401 89.9735C93.2022 91.9113 90.5739 93 87.8333 93C85.3947 93.0024 83.0339 92.1422 81.1683 90.5717C80.1132 89.6947 78.7529 89.2728 77.3867 89.3987C76.0205 89.5247 74.7603 90.1882 73.8833 91.2434C73.0064 92.2985 72.5844 93.6588 72.7104 95.025C72.8364 96.3912 73.4999 97.6514 74.555 98.5284C75.3391 99.1562 76.168 99.7261 77.035 100.233C76.6352 101.15 75.9782 101.93 75.1437 102.48C74.3091 103.03 73.3329 103.327 72.3333 103.333C70.963 103.333 69.6489 102.789 68.68 101.82C67.711 100.851 67.1667 99.537 67.1667 98.1667V87.8334C67.1782 85.7185 67.8382 83.6582 69.0578 81.9304C70.2774 80.2027 71.9978 78.8907 73.9867 78.1717C75.2884 77.7332 76.3627 76.7955 76.9731 75.565C77.5836 74.3344 77.6802 72.9118 77.2417 71.61C76.8032 70.3082 75.8655 69.234 74.635 68.6236C73.4044 68.0131 71.9818 67.9165 70.68 68.355C69.4691 68.8172 68.2946 69.3699 67.1667 70.0084V62C67.1782 59.8852 67.8382 57.8248 69.0578 56.0971C70.2774 54.3693 71.9978 53.0574 73.9867 52.3384C74.6312 52.1212 75.2267 51.7793 75.7392 51.332C76.2516 50.8848 76.6709 50.341 76.9731 49.7317C77.2754 49.1223 77.4547 48.4595 77.5007 47.7809C77.5468 47.1023 77.4588 46.4213 77.2417 45.7767C77.0245 45.1321 76.6826 44.5366 76.2353 44.0242C75.7881 43.5118 75.2443 43.0925 74.635 42.7902C74.0257 42.488 73.3628 42.3087 72.6842 42.2626C72.0056 42.2165 71.3246 42.3046 70.68 42.5217C69.4691 42.9839 68.2946 43.5366 67.1667 44.175V25.8334C67.1667 24.4631 67.711 23.1489 68.68 22.18C69.6489 21.211 70.963 20.6667 72.3333 20.6667C73.7036 20.6667 75.0178 21.211 75.9867 22.18C76.9557 23.1489 77.5 24.4631 77.5 25.8334C77.4926 26.7367 77.2618 27.6241 76.8283 28.4167C76.4846 29.0033 76.26 29.652 76.1674 30.3256C76.0749 30.9991 76.1162 31.6844 76.289 32.342C76.4618 32.9995 76.7627 33.6166 77.1744 34.1576C77.5861 34.6987 78.1006 35.1532 78.6883 35.495C79.278 35.8366 79.9295 36.0582 80.6052 36.147C81.2809 36.2358 81.9674 36.19 82.6254 36.0123C83.2833 35.8346 83.8996 35.5285 84.4387 35.1117C84.9778 34.6948 85.4291 34.1754 85.7667 33.5834C86.1512 32.7451 86.4791 31.8821 86.7483 31C87.1084 30.9523 87.4732 30.9523 87.8333 31C89.2036 31 90.5178 31.5444 91.4867 32.5133C92.4557 33.4822 93 34.7964 93 36.1667C92.9921 37.1795 92.6867 38.1677 92.1217 39.0084C91.6991 39.6788 91.1122 40.2301 90.4167 40.61C89.2245 41.2952 88.3534 42.4258 87.9949 43.7533C87.6364 45.0807 87.8199 46.4962 88.505 47.6884C89.1901 48.8805 90.3208 49.7517 91.6482 50.1102C92.9757 50.4687 94.3912 50.2852 95.5833 49.6C96.51 49.0968 97.3767 48.4902 98.1667 47.7917C99.8897 48.7508 101.302 50.1829 102.238 51.919C103.173 53.6551 103.592 55.6225 103.446 57.5891C103.299 59.5557 102.593 61.4392 101.41 63.0173C100.227 64.5954 98.618 65.8021 96.7717 66.495H96.565Z" fill="white" />
            </svg>
        </symbol>
        <symbol id="time-line" viewBox="0 0 124 124">
            <svg width="124" height="124" viewBox="0 0 124 124" fill="none" xmlns="http://www.w3.org/2000/svg">
                <path d="M62 10.3335C90.5355 10.3335 113.667 33.4647 113.667 62.0002C113.667 90.5357 90.5355 113.667 62 113.667C33.4645 113.667 10.3333 90.5357 10.3333 62.0002C10.3333 33.4647 33.4645 10.3335 62 10.3335ZM62 20.6668C51.0377 20.6668 40.5244 25.0216 32.7729 32.7731C25.0214 40.5246 20.6666 51.0379 20.6666 62.0002C20.6666 72.9624 25.0214 83.4757 32.7729 91.2272C40.5244 98.9787 51.0377 103.333 62 103.333C72.9623 103.333 83.4755 98.9787 91.2271 91.2272C98.9786 83.4757 103.333 72.9624 103.333 62.0002C103.333 51.0379 98.9786 40.5246 91.2271 32.7731C83.4755 25.0216 72.9623 20.6668 62 20.6668ZM62 31.0002C63.2655 31.0003 64.4869 31.4649 65.4326 32.3059C66.3782 33.1468 66.9824 34.3055 67.1305 35.5623L67.1666 36.1668V59.8612L81.1528 73.8473C82.0794 74.7771 82.6174 76.0247 82.6575 77.3368C82.6975 78.6489 82.2367 79.927 81.3685 80.9116C80.5004 81.8962 79.29 82.5134 77.9832 82.6379C76.6764 82.7624 75.3713 82.3848 74.3328 81.5818L73.8471 81.153L58.3471 65.653C57.5441 64.8493 57.0284 63.8033 56.8798 62.677L56.8333 62.0002V36.1668C56.8333 34.7965 57.3777 33.4824 58.3466 32.5134C59.3155 31.5445 60.6297 31.0002 62 31.0002Z" fill="white" />
            </svg>
        </symbol>
        <symbol id="eyes" viewBox="0 0 124 124">
            <svg width="124" height="124" viewBox="0 0 124 124" fill="none" xmlns="http://www.w3.org/2000/svg">
                <path d="M85.25 15.5C75.267 15.5 66.7081 24.2962 62 37.7086C57.2919 24.2962 48.733 15.5 38.75 15.5C23.5406 15.5 11.625 35.9261 11.625 62C11.625 88.0739 23.5406 108.5 38.75 108.5C48.733 108.5 57.2919 99.7038 62 86.2914C66.7081 99.7038 75.267 108.5 85.25 108.5C100.459 108.5 112.375 88.0739 112.375 62C112.375 35.9261 100.459 15.5 85.25 15.5ZM51.7894 90.2827C48.1614 96.9331 43.4097 100.75 38.75 100.75C34.0903 100.75 29.3386 96.9331 25.7106 90.2827C23.3652 85.8349 21.6936 81.0634 20.7506 76.1244C23.1114 77.1914 25.7019 77.6496 28.2855 77.4572C30.869 77.2648 33.3631 76.4279 35.5398 75.023C37.7165 73.6181 39.5063 71.6901 40.7456 69.4151C41.985 67.1401 42.6344 64.5907 42.6344 62C42.6344 59.4093 41.985 56.86 40.7456 54.5849C39.5063 52.3099 37.7165 50.3819 35.5398 48.977C33.3631 47.5721 30.869 46.7352 28.2855 46.5428C25.7019 46.3504 23.1114 46.8086 20.7506 47.8756C21.6936 42.9366 23.3652 38.1651 25.7106 33.7173C29.3386 27.0669 34.0903 23.25 38.75 23.25C43.4097 23.25 48.1614 27.0669 51.7894 33.7173C55.8727 41.2058 58.125 51.2517 58.125 62C58.125 72.7483 55.8727 82.7942 51.7894 90.2827ZM98.2894 90.2827C94.6614 96.9331 89.9097 100.75 85.25 100.75C80.5903 100.75 75.8386 96.9331 72.2106 90.2827C69.8652 85.8349 68.1936 81.0634 67.2506 76.1244C69.6114 77.1914 72.2019 77.6496 74.7855 77.4572C77.369 77.2648 79.8631 76.4279 82.0398 75.023C84.2165 73.6181 86.0063 71.6901 87.2456 69.4151C88.485 67.1401 89.1344 64.5907 89.1344 62C89.1344 59.4093 88.485 56.86 87.2456 54.5849C86.0063 52.3099 84.2165 50.3819 82.0398 48.977C79.8631 47.5721 77.369 46.7352 74.7855 46.5428C72.2019 46.3504 69.6114 46.8086 67.2506 47.8756C68.1936 42.9366 69.8652 38.1651 72.2106 33.7173C75.8386 27.0669 80.5903 23.25 85.25 23.25C89.9097 23.25 94.6614 27.0669 98.2894 33.7173C102.373 41.2058 104.625 51.2517 104.625 62C104.625 72.7483 102.373 82.7942 98.2894 90.2827Z" fill="white" />
            </svg>
        </symbol>
        <symbol id="spatula" viewBox="0 0 125 124">
            <svg width="125" height="124" viewBox="0 0 125 124" fill="none" xmlns="http://www.w3.org/2000/svg">
                <path d="M56.8169 78.6628L18.6611 116.803C17.2072 118.257 15.2353 119.074 13.1792 119.074C11.1232 119.074 9.15128 118.257 7.69741 116.803C6.24354 115.349 5.42676 113.377 5.42676 111.321C5.42676 109.265 6.24354 107.293 7.69741 105.839L45.8377 67.6836" stroke="white" stroke-width="8.5" stroke-linecap="round" stroke-linejoin="round" />
                <path d="M24.1377 89.3991L35.1014 100.363M78.9405 23.6378L59.7619 42.8216M89.899 34.6015L70.7204 53.7801M100.863 45.56L81.6789 64.7386M117.303 40.0781L100.863 23.6378L84.4224 7.19746C83.7026 6.47728 82.8481 5.90598 81.9075 5.51619C80.9669 5.12641 79.9587 4.92578 78.9405 4.92578C77.9224 4.92578 76.9142 5.12641 75.9736 5.51619C75.033 5.90598 74.1784 6.47728 73.4587 7.19746L56.698 23.9581C51.2415 29.633 47.352 36.6275 45.4102 44.2569C43.4685 51.8863 43.541 59.8892 45.6207 67.4821L51.304 73.1655L56.9874 78.8488C64.5803 80.9285 72.5832 81.001 80.2126 79.0593C87.842 77.1175 94.8365 73.228 100.511 67.7715L117.272 51.0108C118.721 49.5626 119.538 47.5996 119.544 45.5509C119.55 43.5022 118.744 41.5345 117.303 40.0781Z" stroke="white" stroke-width="8.5" stroke-linecap="round" stroke-linejoin="round" />
            </svg>
        </symbol>
    </defs>
</svg>