<svg xmlns="http://www.w3.org/2000/svg" aria-hidden="true" style="position:absolute;width:0;height:0;overflow:hidden">
    <defs>
        <symbol id="icon-mail" viewBox="0 0 44 24">
            <path d="M40.174.13H16.435a3.662 3.662 0 0 0-3.652 3.652v16.435a3.656 3.656 0 0 0 3.652 3.652h23.739a3.64 3.64 0 0 0 3.652-3.652V3.782A3.656 3.656 0 0 0 40.174.13zm0 20.087H16.435V6.832l11.87 6.081 11.87-6.081v13.385zm-11.87-10.39-11.87-6.044h23.739l-11.87 6.044zM9.13 20.217c0 .31.055.603.091.913H1.825c-1.008 0-1.826-.822-1.826-1.826s.818-1.826 1.826-1.826h7.304v2.739zM5.478 2.87h3.743c-.037.31-.091.603-.091.913v2.739H5.478c-1.004 0-1.826-.822-1.826-1.826S4.474 2.87 5.478 2.87zM1.826 12c0-1.004.822-1.826 1.826-1.826H9.13v3.652H3.652A1.832 1.832 0 0 1 1.826 12z"/>
        </symbol>
        <symbol id="icon-instagram" viewBox="0 0 24 24">
            <path d="M18.375 0H5.625A5.624 5.624 0 0 0 0 5.625v12.75A5.624 5.624 0 0 0 5.625 24h12.75A5.624 5.624 0 0 0 24 18.375V5.625A5.624 5.624 0 0 0 18.375 0z" style="fill:var(--color1, #000)"/>
            <path d="M18.375 0H5.625A5.624 5.624 0 0 0 0 5.625v12.75A5.624 5.624 0 0 0 5.625 24h12.75A5.624 5.624 0 0 0 24 18.375V5.625A5.624 5.624 0 0 0 18.375 0z" style="fill:var(--color1, #000)"/>
            <path fill="#fff" d="M12.001 2.625c-2.546 0-2.866.011-3.866.057-.998.046-1.679.204-2.275.436-.617.239-1.14.56-1.661 1.081S3.357 5.243 3.117 5.86c-.232.596-.391 1.278-.436 2.275-.045 1-.056 1.32-.056 3.866s.011 2.865.057 3.865c.046.998.204 1.679.436 2.275.24.617.56 1.14 1.081 1.661s1.044.843 1.66 1.082c.597.232 1.278.39 2.276.436 1 .045 1.319.057 3.865.057s2.865-.011 3.865-.057c.998-.046 1.68-.204 2.277-.436.616-.239 1.139-.561 1.66-1.082s.842-1.044 1.082-1.66c.23-.596.389-1.278.436-2.276.045-1 .057-1.319.057-3.865s-.012-2.866-.057-3.866c-.047-.998-.205-1.679-.436-2.275-.24-.617-.561-1.14-1.082-1.661s-1.043-.842-1.66-1.081c-.598-.232-1.279-.39-2.277-.436-1-.045-1.318-.057-3.865-.057h.003zm-.841 1.689h.841c2.503 0 2.8.009 3.788.054.914.042 1.41.195 1.741.323.438.17.749.373 1.077.701s.531.641.702 1.078c.128.33.281.826.323 1.74.045.988.055 1.285.055 3.787s-.01 2.799-.055 3.787c-.042.914-.195 1.41-.323 1.74-.17.438-.373.749-.702 1.077s-.64.531-1.077.701c-.33.129-.827.281-1.741.323-.988.045-1.285.055-3.788.055s-2.8-.01-3.788-.055c-.914-.042-1.41-.195-1.741-.323-.437-.17-.75-.373-1.078-.701s-.531-.64-.702-1.078c-.128-.33-.281-.826-.323-1.74-.045-.988-.054-1.285-.054-3.789s.009-2.799.054-3.787c.042-.914.195-1.41.323-1.741.17-.438.373-.75.702-1.078s.641-.531 1.078-.702c.33-.129.827-.281 1.741-.323.865-.039 1.2-.051 2.947-.053v.002zm5.845 1.557a1.125 1.125 0 1 0 0 2.25 1.125 1.125 0 0 0 0-2.25zm-5.004 1.315a4.814 4.814 0 1 0 0 9.629 4.814 4.814 0 0 0 0-9.629zm0 1.689a3.125 3.125 0 1 1 0 6.25 3.125 3.125 0 0 1 0-6.25z" style="fill:var(--color2, #fff)"/>
        </symbol>
        <symbol id="icon-facebook" viewBox="0 0 24 24">
            <path fill="#3d5a98" d="M21.872.906H2.13C1.454.906.906 1.454.906 2.13v19.742c0 .676.548 1.224 1.224 1.224h19.742c.676 0 1.224-.548 1.224-1.224V2.13c0-.676-.548-1.224-1.224-1.224z" style="fill:var(--color3, #3d5a98)"/>
            <path fill="#fff" d="M16.215 23.094v-8.593h2.884l.431-3.349h-3.315V9.015c0-.969.27-1.631 1.659-1.631h1.774v-3a24.01 24.01 0 0 0-2.586-.128c-2.554 0-4.313 1.556-4.313 4.427v2.469H9.865v3.349h2.884v8.593h3.465z" style="fill:var(--color2, #fff)"/>
        </symbol>
        <symbol id="icon-link" viewBox="0 0 80 24">
            <path fill="#a6a6a6" d="M77.488 23.802H2.826a2.816 2.816 0 0 1-2.818-2.818V2.817A2.816 2.816 0 0 1 2.826-.001h74.662c1.557 0 2.853 1.26 2.853 2.818v18.167c0 1.558-1.312 2.818-2.853 2.818z" style="fill:var(--color4, #a6a6a6)"/>
            <path d="M79.763 20.984a2.27 2.27 0 0 1-2.275 2.275H2.826a2.286 2.286 0 0 1-2.293-2.275V2.817A2.274 2.274 0 0 1 2.826.542h74.662a2.27 2.27 0 0 1 2.275 2.275v18.167z" style="fill:var(--color1, #000)"/>
            <path fill="#fff" d="M17.93 11.779c-.018-1.925 1.575-2.853 1.645-2.888-.893-1.313-2.293-1.488-2.783-1.505-1.173-.122-2.31.7-2.905.7-.613 0-1.523-.683-2.52-.665-1.278.017-2.468.753-3.115 1.908-1.348 2.328-.35 5.758.945 7.648.648.928 1.4 1.96 2.398 1.925.963-.035 1.33-.613 2.503-.613 1.155 0 1.488.613 2.503.595 1.033-.018 1.698-.928 2.31-1.855.753-1.068 1.05-2.1 1.05-2.153-.017-.052-2.013-.805-2.03-3.098zM16.04 6.126c.525-.648.875-1.54.77-2.433-.753.035-1.698.525-2.24 1.155-.473.56-.91 1.488-.805 2.345.858.07 1.733-.42 2.275-1.068zM31.932 18.744h-1.348l-.735-2.328h-2.573l-.7 2.328h-1.313l2.555-7.911h1.575l2.538 7.911zm-2.311-3.308-.665-2.065c-.07-.21-.21-.7-.403-1.488h-.017c-.07.333-.21.84-.368 1.488l-.665 2.065h2.118zM38.495 15.821c0 .963-.263 1.733-.788 2.31-.472.508-1.05.753-1.75.753-.753 0-1.295-.263-1.628-.805h-.018v3.01h-1.26v-6.161c0-.613-.017-1.243-.053-1.873h1.12l.07.91h.018c.42-.683 1.068-1.015 1.925-1.015a2.08 2.08 0 0 1 1.68.805c.455.49.683 1.19.683 2.065zm-1.295.053c0-.56-.122-1.015-.368-1.383-.28-.368-.648-.56-1.103-.56-.315 0-.595.105-.858.315s-.42.473-.508.823c-.035.158-.052.28-.052.385v.945c0 .42.123.77.385 1.05s.578.438.998.438c.473 0 .858-.193 1.12-.56.245-.368.385-.858.385-1.453zM45.058 15.821c0 .963-.263 1.733-.788 2.31-.472.508-1.05.753-1.75.753-.753 0-1.295-.263-1.628-.805h-.018v3.01h-1.26v-6.161c0-.613-.017-1.243-.053-1.873h1.12l.07.91h.018c.42-.683 1.068-1.015 1.925-1.015a2.08 2.08 0 0 1 1.68.805c.455.49.683 1.19.683 2.065zm-1.295.053c0-.56-.123-1.015-.385-1.383-.28-.368-.648-.56-1.102-.56-.315 0-.595.105-.858.315s-.42.473-.49.823c-.035.158-.053.28-.053.385v.945c0 .42.123.77.385 1.05s.578.438.998.438c.472 0 .858-.193 1.12-.56.245-.368.385-.858.385-1.453zM52.391 16.521c0 .665-.228 1.225-.7 1.645-.507.455-1.243.7-2.153.7-.857 0-1.54-.158-2.048-.49l.298-1.05c.56.333 1.173.508 1.837.508.472 0 .858-.105 1.12-.315s.403-.508.403-.858c0-.315-.105-.595-.332-.805-.21-.228-.578-.42-1.085-.613-1.383-.525-2.083-1.278-2.083-2.275 0-.648.245-1.19.735-1.593.49-.42 1.138-.63 1.943-.63.717 0 1.312.123 1.803.368l-.315 1.033a3.112 3.112 0 0 0-1.523-.368c-.455 0-.788.105-1.05.333a.944.944 0 0 0-.315.718c0 .315.123.578.368.77.21.193.595.385 1.155.613.683.28 1.19.595 1.505.963.28.35.438.805.438 1.348zM56.591 13.984h-1.4v2.765c0 .7.245 1.05.735 1.05.227 0 .42-.018.56-.052l.035.963c-.245.088-.577.14-.98.14-.508 0-.893-.158-1.173-.455s-.42-.823-.42-1.54v-2.87h-.84v-.945h.84v-1.05l1.243-.368v1.418h1.4v.945zM62.892 15.839c0 .875-.245 1.593-.753 2.17-.525.578-1.225.875-2.1.875-.84 0-1.505-.28-1.995-.84s-.753-1.26-.753-2.1c0-.893.263-1.61.77-2.17s1.208-.84 2.065-.84c.84 0 1.505.28 2.013.84.525.525.753 1.225.753 2.065zm-1.313.052c0-.525-.105-.98-.333-1.348-.262-.455-.648-.683-1.137-.683-.508 0-.893.228-1.155.683-.227.385-.333.84-.333 1.383 0 .525.105.98.333 1.348.28.455.665.683 1.155.683s.857-.228 1.137-.7c.228-.385.333-.84.333-1.365zM67.022 14.159a2.964 2.964 0 0 0-.403-.035c-.437 0-.788.175-1.033.508-.21.298-.315.665-.315 1.12v2.993h-1.26l.018-3.92c0-.665-.018-1.26-.053-1.803h1.103l.053 1.085h.035c.14-.367.35-.683.63-.91.28-.21.595-.298.91-.298.123 0 .227 0 .315.017v1.243zM72.693 15.629c0 .228-.017.42-.052.578h-3.798c.017.56.192.998.56 1.295.315.263.735.403 1.243.403.56 0 1.085-.087 1.54-.263l.192.875c-.542.228-1.173.35-1.907.35-.893 0-1.575-.263-2.083-.788s-.752-1.225-.752-2.1c0-.858.227-1.575.7-2.153.49-.613 1.155-.91 1.995-.91.823 0 1.453.298 1.873.91.332.49.49 1.085.49 1.803zm-1.208-.333c0-.367-.07-.7-.245-.98-.227-.35-.56-.525-1.015-.525-.42 0-.753.175-1.015.525-.21.28-.333.595-.368.98h2.643zM29.201 5.951c0 .7-.21 1.225-.63 1.575-.385.333-.945.49-1.663.49-.35 0-.665-.018-.91-.053V4.13a6.708 6.708 0 0 1 1.068-.088c.683 0 1.19.14 1.54.438.403.368.595.858.595 1.47zm-.665.017c0-.455-.123-.805-.368-1.05s-.595-.368-1.05-.368c-.193 0-.368.018-.508.035V7.49c.07.018.21.018.42.018.473 0 .84-.14 1.103-.403s.403-.63.403-1.138zM32.684 6.563c0 .438-.122.788-.368 1.068-.263.28-.595.42-1.033.42-.42 0-.735-.14-.98-.403-.245-.28-.368-.613-.368-1.033 0-.438.123-.788.385-1.068.245-.28.595-.42 1.015-.42s.735.14.998.403c.228.28.35.613.35 1.033zm-.648.018c0-.263-.052-.473-.175-.665-.123-.228-.315-.333-.56-.333s-.438.105-.578.333a1.362 1.362 0 0 0-.175.683c0 .262.052.473.175.665.14.227.315.333.56.333s.42-.105.56-.35c.14-.175.193-.403.193-.665zM37.357 5.18l-.875 2.8h-.578l-.368-1.225a8.702 8.702 0 0 1-.227-.91h-.018a5.27 5.27 0 0 1-.228.91l-.385 1.225H34.1l-.823-2.8h.648l.315 1.33c.07.315.14.613.193.893h.017c.053-.228.123-.525.228-.893l.403-1.348h.508l.385 1.313c.087.315.175.63.227.928h.018c.035-.28.105-.595.193-.928l.333-1.313.613.018zM40.595 7.998h-.63v-1.61c0-.49-.193-.735-.56-.735-.193 0-.333.07-.455.21s-.175.298-.175.473v1.663h-.63V6.004c0-.245 0-.508-.017-.805h.543l.035.438h.018a.825.825 0 0 1 .315-.333c.175-.105.35-.158.56-.158.263 0 .473.087.648.263.21.21.315.525.315.928V8h.035zM42.31 7.998h-.63V3.903h.63v4.095zM45.985 6.563c0 .438-.123.788-.368 1.068-.262.28-.595.42-1.032.42-.42 0-.735-.14-.98-.403-.245-.28-.368-.613-.368-1.033 0-.438.123-.788.385-1.068.245-.28.595-.42 1.015-.42s.735.14.997.403c.227.28.35.613.35 1.033zm-.648.018c0-.263-.052-.473-.175-.665-.123-.228-.315-.333-.56-.333s-.438.105-.578.333a1.362 1.362 0 0 0-.175.683c0 .262.053.473.175.665.14.227.315.333.56.333s.42-.105.56-.35c.14-.175.192-.403.192-.665zM48.995 7.998h-.56l-.053-.315h-.017c-.192.262-.472.385-.823.385a.87.87 0 0 1-.648-.263.854.854 0 0 1-.227-.578c0-.35.14-.613.437-.788.28-.175.683-.263 1.208-.263v-.053c0-.368-.192-.56-.578-.56-.28 0-.525.07-.735.21l-.123-.403c.262-.158.577-.245.963-.245.735 0 1.103.385 1.103 1.155v1.033c.017.298.035.508.052.683zm-.647-.962v-.438c-.683-.018-1.032.175-1.032.56 0 .14.035.263.123.333s.175.105.297.105c.14 0 .263-.035.385-.122s.192-.193.21-.333c.017-.035.017-.07.017-.105zM52.548 7.998h-.56l-.035-.455h-.018c-.175.35-.472.508-.893.508-.332 0-.613-.14-.84-.403s-.333-.613-.333-1.033c0-.455.123-.823.368-1.103.228-.262.525-.385.858-.385.385 0 .648.123.787.385h.018v-1.61h.63v3.343c-.017.263 0 .525.018.753zm-.647-1.19v-.473c0-.088 0-.14-.018-.193-.035-.158-.105-.28-.227-.385s-.262-.158-.42-.158c-.228 0-.42.087-.543.28-.14.193-.192.42-.192.718 0 .28.07.508.192.683.14.193.315.28.543.28.21 0 .367-.07.49-.228a.901.901 0 0 0 .175-.525zM57.869 6.563c0 .438-.123.788-.368 1.068-.262.28-.595.42-1.032.42-.403 0-.735-.14-.98-.403-.245-.28-.368-.613-.368-1.033 0-.438.123-.788.385-1.068.245-.28.595-.42 1.015-.42.403 0 .735.14.998.403.245.28.35.613.35 1.033zm-.63.018c0-.263-.053-.473-.175-.665-.14-.228-.315-.333-.56-.333s-.437.105-.578.333a1.362 1.362 0 0 0-.175.683c0 .262.053.473.175.665.14.227.315.333.56.333s.42-.105.56-.35c.123-.175.193-.403.193-.665zM61.229 7.998h-.63v-1.61c0-.49-.192-.735-.56-.735-.192 0-.333.07-.455.21s-.175.298-.175.473v1.663h-.63V6.004c0-.245 0-.508-.017-.805h.542l.035.438h.018a.825.825 0 0 1 .315-.333c.175-.105.35-.158.56-.158a.87.87 0 0 1 .648.263c.21.21.315.525.315.928V8h.035zM65.429 5.653h-.683v1.365c0 .35.123.525.368.525.105 0 .21-.017.28-.035l.017.473c-.123.053-.28.07-.49.07-.245 0-.437-.07-.577-.227s-.21-.403-.21-.753V5.653h-.42V5.18h.403v-.508l.613-.193v.7h.683l.018.473zM68.72 7.998h-.63V6.405c0-.508-.193-.753-.56-.753-.297 0-.49.14-.595.438-.017.07-.035.14-.035.228v1.68h-.63V3.903h.63v1.698h.018c.192-.315.472-.455.84-.455.262 0 .472.087.648.262.21.21.315.525.315.945v1.645zM72.132 6.458c0 .105 0 .21-.017.28h-1.873c0 .28.105.49.262.63a.99.99 0 0 0 .613.193c.28 0 .525-.053.753-.14l.105.438c-.263.123-.578.175-.945.175-.437 0-.77-.123-1.032-.385-.245-.263-.368-.595-.368-1.033 0-.42.123-.77.35-1.05.245-.298.56-.455.98-.455.403 0 .717.158.91.455.175.245.262.543.262.893zm-.595-.157c0-.193-.035-.35-.123-.473-.105-.175-.28-.263-.49-.263s-.368.088-.49.263c-.105.14-.157.298-.192.49 0-.018 1.295-.018 1.295-.018z" style="fill:var(--color2, #fff)"/>
        </symbol>
        <symbol id="icon-youtube" viewBox="0 0 34 24">
            <path fill="red" d="M33.529 3.743c-.197-.724-.58-1.383-1.113-1.913S31.221.918 30.494.722C27.833 0 17.125 0 17.125 0S6.416.022 3.756.744c-.727.196-1.389.578-1.922 1.108S.918 3.042.721 3.765C-.084 8.471-.396 15.643.743 20.161c.197.724.58 1.383 1.113 1.913s1.195.912 1.922 1.108c2.661.722 13.369.722 13.369.722s10.708 0 13.369-.722c.727-.196 1.389-.578 1.922-1.108s.916-1.19 1.113-1.913c.849-4.713 1.11-11.88-.022-16.418z" style="fill:var(--color5, #f00)"/>
            <path fill="#fff" d="m13.717 17.074 8.883-5.122-8.883-5.122v10.245z" style="fill:var(--color2, #fff)"/>
        </symbol>
        <symbol id="icon-skill-icons_twitter" viewBox="0 0 24 24">
            <path fill="#fff" d="M18.375 0H5.625A5.624 5.624 0 0 0 0 5.625v12.75A5.624 5.624 0 0 0 5.625 24h12.75A5.624 5.624 0 0 0 24 18.375V5.625A5.624 5.624 0 0 0 18.375 0z" style="fill:var(--color2, #fff)"/>
            <path fill="#1d9bf0" d="M18.375 0H5.625A5.624 5.624 0 0 0 0 5.625v12.75A5.624 5.624 0 0 0 5.625 24h12.75A5.624 5.624 0 0 0 24 18.375V5.625A5.624 5.624 0 0 0 18.375 0z" style="fill:var(--color6, #1d9bf0)"/>
            <path fill="#fff" d="M18.71 8.57c.01.149.01.298.01.448 0 4.575-3.483 9.851-9.851 9.851v-.003a9.798 9.798 0 0 1-5.307-1.552 6.955 6.955 0 0 0 5.124-1.435 3.467 3.467 0 0 1-3.234-2.404c.519.1 1.053.08 1.563-.06a3.462 3.462 0 0 1-2.777-3.394v-.044c.481.268 1.02.417 1.571.433a3.468 3.468 0 0 1-1.072-4.623 9.835 9.835 0 0 0 7.135 3.617 3.465 3.465 0 0 1 5.9-3.158 6.957 6.957 0 0 0 2.199-.84 3.471 3.471 0 0 1-1.522 1.915 6.9 6.9 0 0 0 1.988-.545 7.031 7.031 0 0 1-1.728 1.793z" style="fill:var(--color2, #fff)"/>
        </symbol>
        <symbol id="icon-brain" viewBox="0 0 24 24">
            <path d="M22 11a4 4 0 0 0-2-3.48A3.01 3.01 0 0 0 20 7a3.004 3.004 0 0 0-3-3h-.18a2.99 2.99 0 0 0-3.536-1.895A3.005 3.005 0 0 0 12 2.781 3 3 0 0 0 7.18 4H7a3.004 3.004 0 0 0-3 3 3.01 3.01 0 0 0 0 .52 4 4 0 0 0-.55 6.589A4.003 4.003 0 0 0 7 19.999h.18a3.004 3.004 0 0 0 2.085 1.89A2.993 2.993 0 0 0 12 21.218a3 3 0 0 0 4.82-1.219H17a3.996 3.996 0 0 0 3.414-1.957 4 4 0 0 0 .086-3.933 4.009 4.009 0 0 0 1.5-3.11zM11 8.55a4.9 4.9 0 0 0-.68-.32 1.001 1.001 0 1 0-.64 1.9A2 2 0 0 1 11 12v1.55a4.9 4.9 0 0 0-.68-.32 1.001 1.001 0 1 0-.64 1.9A2 2 0 0 1 11 17v2a.997.997 0 0 1-1.91.4c.168-.098.328-.208.48-.33a.993.993 0 0 0 .357-.679 1.005 1.005 0 0 0-.531-.978 1.01 1.01 0 0 0-.764-.07.996.996 0 0 0-.343.186 2.002 2.002 0 0 1-3.29-1.53c.005-.376.116-.744.32-1.06.225.039.452.059.68.06a.997.997 0 0 0 1-1 .997.997 0 0 0-1-1 1.811 1.811 0 0 1-.69-.13 1.995 1.995 0 0 1-1.314-1.711A1.999 1.999 0 0 1 5 9.248c.142.131.296.248.46.35a1.005 1.005 0 1 0 1-1.74.894.894 0 0 1-.46-.86.997.997 0 0 1 1-1 .82.82 0 0 1 .21 0c.053.161.117.318.19.47a1 1 0 0 0 1.37.37.999.999 0 0 0 .36-1.34 1.052 1.052 0 0 1-.13-.5.997.997 0 0 1 1-1 .997.997 0 0 1 1 1v3.55zm7.69 4.32A1.811 1.811 0 0 1 18 13a.997.997 0 0 0-1 1 .997.997 0 0 0 1 1c.228-.001.455-.021.68-.06.204.316.315.684.32 1.06a2 2 0 0 1-3.29 1.53 1.002 1.002 0 0 0-1.28 1.54c.152.122.312.232.48.33a1.006 1.006 0 0 1-.91.6.997.997 0 0 1-1-1v-2a2.002 2.002 0 0 1 1.32-1.87 1 1 0 0 0 .63-1.27 1 1 0 0 0-1.27-.63 4.9 4.9 0 0 0-.68.32V12a2.002 2.002 0 0 1 1.32-1.871.99.99 0 0 0 .578-.505.994.994 0 0 0 .052-.766.99.99 0 0 0-.505-.578.994.994 0 0 0-.766-.052 4.9 4.9 0 0 0-.68.32v-3.55a.997.997 0 0 1 1-1 .997.997 0 0 1 1 1 1.052 1.052 0 0 1-.13.5.996.996 0 0 0 .731 1.495 1.01 1.01 0 0 0 .742-.2.987.987 0 0 0 .257-.296c.074-.162.138-.329.19-.5a.82.82 0 0 1 .21 0 .997.997 0 0 1 .5 1.86 1.005 1.005 0 0 0-.37 1.37 1.005 1.005 0 0 0 1.37.37c.179-.097.347-.215.5-.35a2.006 2.006 0 0 1 1.022 1.896 1.998 1.998 0 0 1-1.292 1.724h-.04z"/>
        </symbol>
        <symbol id="icon-time-line" viewBox="0 0 24 24">
            <path d="M12 2c5.523 0 10 4.477 10 10s-4.477 10-10 10S2 17.523 2 12 6.477 2 12 2zm0 2a8 8 0 1 0 0 16 8 8 0 0 0 0-16zm0 2a.998.998 0 0 1 .993.883L13 7v4.586l2.707 2.707a1.002 1.002 0 0 1-.613 1.701 1.003 1.003 0 0 1-.707-.204l-.094-.083-3-3a1.005 1.005 0 0 1-.284-.576L11 12V7a.997.997 0 0 1 1-1z"/>
        </symbol>
        <symbol id="icon-eyes" viewBox="0 0 24 24">
            <path d="M16.5 3c-1.932 0-3.589 1.702-4.5 4.298C11.089 4.702 9.432 3 7.5 3c-2.944 0-5.25 3.953-5.25 9s2.306 9 5.25 9c1.932 0 3.589-1.703 4.5-4.298.911 2.596 2.568 4.298 4.5 4.298 2.944 0 5.25-3.953 5.25-9s-2.306-9-5.25-9zm-6.476 14.474C9.322 18.761 8.402 19.5 7.5 19.5s-1.822-.739-2.524-2.026a9.838 9.838 0 0 1-.96-2.74 2.996 2.996 0 0 0 2.862-.213 3.007 3.007 0 0 0 1.374-2.52 2.999 2.999 0 0 0-4.236-2.733 9.838 9.838 0 0 1 .96-2.74C5.678 5.241 6.598 4.502 7.5 4.502s1.822.739 2.524 2.026c.79 1.449 1.226 3.394 1.226 5.474s-.436 4.025-1.226 5.474zm9 0c-.702 1.287-1.622 2.026-2.524 2.026s-1.822-.739-2.524-2.026a9.838 9.838 0 0 1-.96-2.74 2.996 2.996 0 0 0 2.862-.213 3.007 3.007 0 0 0 1.374-2.52 2.999 2.999 0 0 0-4.236-2.733 9.838 9.838 0 0 1 .96-2.74c.702-1.287 1.622-2.026 2.524-2.026s1.822.739 2.524 2.026c.79 1.449 1.226 3.394 1.226 5.474s-.436 4.025-1.226 5.474z"/>
        </symbol>
        <symbol id="icon-spatula" viewBox="0 0 24 24">
            <path stroke-linecap="round" stroke-linejoin="round" stroke-width="1.645" d="m10.9 15.225-7.385 7.382a1.5 1.5 0 0 1-2.122-2.122L8.775 13.1"/>
            <path stroke-linecap="round" stroke-linejoin="round" stroke-width="1.645" d="m4.575 17.303 2.122 2.122m8.485-14.85L11.47 8.288m5.833-1.591-3.712 3.712m5.834-1.591-3.713 3.712m6.895-4.773-6.364-6.364a1.496 1.496 0 0 0-1.635-.325 1.507 1.507 0 0 0-.487.325l-3.244 3.244a8.8 8.8 0 0 0-2.144 8.424l2.2 2.2a8.792 8.792 0 0 0 8.424-2.144l3.244-3.244a1.501 1.501 0 0 0 .006-2.116z"/>
        </symbol>
    </defs>
</svg>