<svg xmlns="http://www.w3.org/2000/svg" aria-hidden="true" style="position:absolute;width:0;height:0;overflow:hidden">
    <defs>
        <symbol id="book" viewBox="0 0 38 37">
            <svg width="38" height="37" viewBox="0 0 38 37" fill="none" xmlns="http://www.w3.org/2000/svg">
                <path d="M18.9999 9.25008C18.9999 9.25008 16.6874 6.16675 11.2916 6.16675C5.89575 6.16675 3.58325 9.25008 3.58325 9.25008V30.8334C3.58325 30.8334 5.89575 29.2917 11.2916 29.2917C16.6874 29.2917 18.9999 30.8334 18.9999 30.8334M18.9999 9.25008V30.8334M18.9999 9.25008C18.9999 9.25008 21.3124 6.16675 26.7083 6.16675C32.1041 6.16675 34.4166 9.25008 34.4166 9.25008V30.8334C34.4166 30.8334 32.1041 29.2917 26.7083 29.2917C21.3124 29.2917 18.9999 30.8334 18.9999 30.8334" stroke="white" stroke-width="3" stroke-linecap="round" stroke-linejoin="round" />
            </svg>
        </symbol>
        <symbol id="cheese" viewBox="0 0 24 24">
            <path d="M15.32 2c-0.228-0.034-0.462 0.012-0.66 0.13l-12 7c-0.048 0.027-0.091 0.061-0.13 0.1l-0.1 0.080c-0.068 0.079-0.125 0.166-0.17 0.26-0.071 0.132-0.106 0.28-0.1 0.43v10c0 0.265 0.105 0.52 0.293 0.707s0.442 0.293 0.707 0.293h18c0.265 0 0.52-0.105 0.707-0.293s0.293-0.442 0.293-0.707v-10c0.004-1.931-0.684-3.799-1.939-5.267s-2.993-2.437-4.901-2.733zM15.32 4.050c1.202 0.246 2.302 0.851 3.153 1.735s1.415 2.005 1.617 3.215h-13.23l8.46-4.95zM20.16 19h-16v-8h16v8z"></path>
            <path d="M6.66 18c0.828 0 1.5-0.672 1.5-1.5s-0.672-1.5-1.5-1.5c-0.828 0-1.5 0.672-1.5 1.5s0.672 1.5 1.5 1.5z"></path>
            <path d="M11.66 15c0.828 0 1.5-0.672 1.5-1.5s-0.672-1.5-1.5-1.5c-0.828 0-1.5 0.672-1.5 1.5s0.672 1.5 1.5 1.5z"></path>
            <path d="M17.16 18c1.105 0 2-0.895 2-2s-0.895-2-2-2c-1.105 0-2 0.895-2 2s0.895 2 2 2z"></path>
        </symbol>
        <symbol id="people" viewBox="0 0 34 33">
            <svg width="34" height="33" viewBox="0 0 34 33" fill="none" xmlns="http://www.w3.org/2000/svg">
                <path d="M10.0625 24.0156C12.9361 24.0156 15.2656 21.6861 15.2656 18.8125C15.2656 15.9389 12.9361 13.6094 10.0625 13.6094C7.18889 13.6094 4.85938 15.9389 4.85938 18.8125C4.85938 21.6861 7.18889 24.0156 10.0625 24.0156Z" stroke="white" stroke-width="3.5" stroke-linecap="round" stroke-linejoin="round" />
                <path d="M23.9375 12.4531C26.8111 12.4531 29.1406 10.1236 29.1406 7.25C29.1406 4.37639 26.8111 2.04688 23.9375 2.04688C21.0639 2.04688 18.7344 4.37639 18.7344 7.25C18.7344 10.1236 21.0639 12.4531 23.9375 12.4531Z" stroke="white" stroke-width="3.5" stroke-linecap="round" stroke-linejoin="round" />
                <path d="M16.4219 19.3906C16.4219 17.0781 18.1562 12.4531 23.9375 12.4531C29.7187 12.4531 31.4531 17.0781 31.4531 19.3906M2.54688 30.9531C2.54688 28.6406 4.28125 24.0156 10.0625 24.0156C15.8437 24.0156 17.5781 28.6406 17.5781 30.9531" stroke="white" stroke-width="3.5" stroke-linecap="round" stroke-linejoin="round" />
            </svg>
        </symbol>
        <symbol id="money" viewBox="0 0 36 24">
            <path d="M14.298 16.8h7.149v-1.8h-2.383v-8.4h-2.122l-2.755 2.569 1.434 1.5c0.521-0.462 0.863-0.819 1.024-1.069h0.037v5.4h-2.383v1.8zM23.829 12c0 0.875-0.13 1.762-0.391 2.662s-0.63 1.737-1.108 2.513c-0.478 0.775-1.108 1.406-1.89 1.894s-1.638 0.731-2.569 0.731c-0.931 0-1.787-0.244-2.569-0.731s-1.412-1.119-1.89-1.894c-0.478-0.775-0.847-1.613-1.108-2.513s-0.391-1.787-0.391-2.662c0-0.875 0.13-1.763 0.391-2.663s0.63-1.737 1.108-2.513c0.478-0.775 1.108-1.406 1.89-1.894s1.638-0.731 2.569-0.731c0.931 0 1.787 0.244 2.569 0.731s1.412 1.119 1.89 1.894c0.478 0.775 0.847 1.612 1.108 2.513s0.391 1.787 0.391 2.663zM33.361 16.8v-9.6c-1.316 0-2.439-0.469-3.37-1.406s-1.396-2.069-1.396-3.394h-21.447c0 1.325-0.465 2.456-1.396 3.394s-2.054 1.406-3.37 1.406v9.6c1.316 0 2.439 0.469 3.37 1.406s1.396 2.069 1.396 3.394h21.447c0-1.325 0.465-2.456 1.396-3.394s2.054-1.406 3.37-1.406zM35.744 1.2v21.6c0 0.325-0.118 0.606-0.354 0.844s-0.515 0.356-0.838 0.356h-33.362c-0.323 0-0.602-0.119-0.838-0.356s-0.354-0.519-0.354-0.844v-21.6c0-0.325 0.118-0.606 0.354-0.844s0.515-0.356 0.838-0.356h33.362c0.323 0 0.602 0.119 0.838 0.356s0.354 0.519 0.354 0.844z"></path>
        </symbol>
        <symbol id="fire" viewBox="0 0 24 24">
            <path d="M9.143 2.34c-0.761 0.68-5.143 4.866-5.143 11.66h2c0-5.921 3.843-9.604 4.475-10.167l-1.332-1.493zM14.056 8.218c-1.108-3.279-2.854-5.299-3.32-5.801l-1.465 1.362c0.35 0.376 1.901 2.157 2.889 5.080l1.896-0.641zM14.262 9.060c0.738-1.292 1.568-2.035 1.79-2.221l-1.281-1.536c-0.346 0.288-1.356 1.208-2.246 2.765l1.737 0.992zM14.947 6.838c0.443 0.37 3.053 2.74 3.053 7.103h2c0-5.223-3.128-8.1-3.77-8.637l-1.283 1.534zM18 13.941v0.059h2v-0.059h-2zM18 14c-0 0.788-0.155 1.568-0.457 2.296l1.848 0.765c0.402-0.97 0.609-2.010 0.609-3.061h-2zM17.543 16.296c-0.301 0.728-0.743 1.39-1.3 1.947l1.414 1.414c0.743-0.743 1.332-1.625 1.734-2.596l-1.848-0.765zM16.243 18.243c-0.557 0.557-1.219 0.999-1.947 1.3l0.766 1.848c0.97-0.402 1.852-0.991 2.595-1.734l-1.414-1.414zM14.296 19.543c-0.728 0.302-1.508 0.457-2.296 0.457v2c1.051 0 2.091-0.207 3.062-0.609l-0.766-1.848zM12 20c-0.788-0-1.568-0.155-2.296-0.457l-0.765 1.848c0.97 0.402 2.011 0.609 3.061 0.609v-2zM9.704 19.543c-0.728-0.301-1.39-0.743-1.947-1.3l-1.414 1.414c0.743 0.743 1.626 1.331 2.597 1.733l0.764-1.847zM7.757 18.243c-0.557-0.557-0.999-1.219-1.3-1.947l-1.848 0.765c0.402 0.971 0.991 1.853 1.734 2.596l1.414-1.414zM6.457 16.296c-0.302-0.728-0.457-1.508-0.457-2.296h-2c0 1.050 0.207 2.091 0.609 3.061l1.848-0.765zM16.052 6.839c-0.155 0.129-0.35 0.2-0.552 0.2s-0.398-0.071-0.553-0.2l1.283-1.535c-0.204-0.171-0.463-0.265-0.73-0.265s-0.525 0.093-0.729 0.264l1.281 1.536zM12.161 8.859c0.325 0.958 1.616 1.052 2.101 0.201l-1.737-0.992c0.354-0.618 1.292-0.557 1.531 0.15l-1.895 0.641zM10.475 3.833c-0.168 0.15-0.388 0.229-0.613 0.219s-0.438-0.108-0.592-0.272l1.464-1.362c-0.202-0.219-0.482-0.349-0.78-0.364s-0.589 0.089-0.811 0.287l1.332 1.492z"></path>
            <path d="M15.958 16.418l-0.995 0.104 0.006 0.040 0.989-0.144zM8.042 16.418l0.99 0.145 0.005-0.040-0.995-0.105zM10.831 10.631c-0.777 0.623-1.484 1.327-2.111 2.1-0.74 0.93-1.459 2.135-1.663 3.506l1.978 0.295c0.132-0.883 0.618-1.762 1.25-2.554 0.535-0.658 1.138-1.258 1.8-1.789l-1.254-1.558zM13.169 10.631c-0.331-0.268-0.743-0.414-1.169-0.414s-0.838 0.146-1.169 0.414l1.254 1.558c-0.025 0.018-0.054 0.028-0.085 0.028s-0.061-0.010-0.085-0.028l1.254-1.558zM16.943 16.237c-0.204-1.371-0.922-2.576-1.663-3.505-0.627-0.773-1.335-1.477-2.111-2.1l-1.254 1.557c0.662 0.531 1.265 1.131 1.8 1.789 0.632 0.792 1.118 1.671 1.25 2.554l1.978-0.295zM16.953 16.315l-0.010-0.078-1.978 0.295-0.002-0.010 1.99-0.207zM14.969 16.562c0.020 0.142 0.030 0.289 0.031 0.438h2c0-0.243-0.017-0.486-0.052-0.726l-1.979 0.288zM15 17c0 0.796-0.316 1.559-0.879 2.121s-1.326 0.879-2.121 0.879v2c1.326 0 2.598-0.527 3.536-1.464s1.464-2.209 1.464-3.536h-2zM12 20c-0.796 0-1.559-0.316-2.121-0.879s-0.879-1.326-0.879-2.121h-2c0 1.326 0.527 2.598 1.464 3.536s2.209 1.464 3.536 1.464v-2zM9 17c0-0.149 0.011-0.295 0.032-0.437l-1.98-0.289c-0.034 0.238-0.051 0.48-0.052 0.726h2zM7.057 16.237l-0.010 0.078 1.99 0.207-0.002 0.010-1.978-0.295z"></path>
        </symbol>
        <symbol id="mail" viewBox="0 0 44 24">
            <path d="M40.174.13H16.435a3.662 3.662 0 0 0-3.652 3.652v16.435a3.656 3.656 0 0 0 3.652 3.652h23.739a3.64 3.64 0 0 0 3.652-3.652V3.782A3.656 3.656 0 0 0 40.174.13zm0 20.087H16.435V6.832l11.87 6.081 11.87-6.081v13.385zm-11.87-10.39-11.87-6.044h23.739l-11.87 6.044zM9.13 20.217c0 .31.055.603.091.913H1.825c-1.008 0-1.826-.822-1.826-1.826s.818-1.826 1.826-1.826h7.304v2.739zM5.478 2.87h3.743c-.037.31-.091.603-.091.913v2.739H5.478c-1.004 0-1.826-.822-1.826-1.826S4.474 2.87 5.478 2.87zM1.826 12c0-1.004.822-1.826 1.826-1.826H9.13v3.652H3.652A1.832 1.832 0 0 1 1.826 12z"/>
        </symbol>
        <symbol id="facebook" viewBox="0 0 24 24">
            <path fill="#3d5a98" d="M21.872.906H2.13C1.454.906.906 1.454.906 2.13v19.742c0 .676.548 1.224 1.224 1.224h19.742c.676 0 1.224-.548 1.224-1.224V2.13c0-.676-.548-1.224-1.224-1.224z" style="fill:var(--color1, #3d5a98)"/>
            <path fill="#fff" d="M16.215 23.094v-8.593h2.884l.431-3.349h-3.315V9.015c0-.969.27-1.631 1.659-1.631h1.774v-3a24.01 24.01 0 0 0-2.586-.128c-2.554 0-4.313 1.556-4.313 4.427v2.469H9.865v3.349h2.884v8.593h3.465z" style="fill:var(--color2, #fff)"/>
        </symbol>
        <symbol id="link" viewBox="0 0 80 24">
            <path fill="#a6a6a6" d="M77.488 23.802H2.826a2.816 2.816 0 0 1-2.818-2.818V2.817A2.816 2.816 0 0 1 2.826-.001h74.662c1.557 0 2.853 1.26 2.853 2.818v18.167c0 1.558-1.312 2.818-2.853 2.818z" style="fill:var(--color3, #a6a6a6)"/>
            <path d="M79.763 20.984a2.27 2.27 0 0 1-2.275 2.275H2.826a2.286 2.286 0 0 1-2.293-2.275V2.817A2.274 2.274 0 0 1 2.826.542h74.662a2.27 2.27 0 0 1 2.275 2.275v18.167z" style="fill:var(--color4, #000)"/>
            <path fill="#fff" d="M17.93 11.779c-.018-1.925 1.575-2.853 1.645-2.888-.893-1.313-2.293-1.488-2.783-1.505-1.173-.122-2.31.7-2.905.7-.613 0-1.523-.683-2.52-.665-1.278.017-2.468.753-3.115 1.908-1.348 2.328-.35 5.758.945 7.648.648.928 1.4 1.96 2.398 1.925.963-.035 1.33-.613 2.503-.613 1.155 0 1.488.613 2.503.595 1.033-.018 1.698-.928 2.31-1.855.753-1.068 1.05-2.1 1.05-2.153-.017-.052-2.013-.805-2.03-3.098zM16.04 6.126c.525-.648.875-1.54.77-2.433-.753.035-1.698.525-2.24 1.155-.473.56-.91 1.488-.805 2.345.858.07 1.733-.42 2.275-1.068zM31.932 18.744h-1.348l-.735-2.328h-2.573l-.7 2.328h-1.313l2.555-7.911h1.575l2.538 7.911zm-2.311-3.308-.665-2.065c-.07-.21-.21-.7-.403-1.488h-.017c-.07.333-.21.84-.368 1.488l-.665 2.065h2.118zM38.495 15.821c0 .963-.263 1.733-.788 2.31-.472.508-1.05.753-1.75.753-.753 0-1.295-.263-1.628-.805h-.018v3.01h-1.26v-6.161c0-.613-.017-1.243-.053-1.873h1.12l.07.91h.018c.42-.683 1.068-1.015 1.925-1.015a2.08 2.08 0 0 1 1.68.805c.455.49.683 1.19.683 2.065zm-1.295.053c0-.56-.122-1.015-.368-1.383-.28-.368-.648-.56-1.103-.56-.315 0-.595.105-.858.315s-.42.473-.508.823c-.035.158-.052.28-.052.385v.945c0 .42.123.77.385 1.05s.578.438.998.438c.473 0 .858-.193 1.12-.56.245-.368.385-.858.385-1.453zM45.058 15.821c0 .963-.263 1.733-.788 2.31-.472.508-1.05.753-1.75.753-.753 0-1.295-.263-1.628-.805h-.018v3.01h-1.26v-6.161c0-.613-.017-1.243-.053-1.873h1.12l.07.91h.018c.42-.683 1.068-1.015 1.925-1.015a2.08 2.08 0 0 1 1.68.805c.455.49.683 1.19.683 2.065zm-1.295.053c0-.56-.123-1.015-.385-1.383-.28-.368-.648-.56-1.102-.56-.315 0-.595.105-.858.315s-.42.473-.49.823c-.035.158-.053.28-.053.385v.945c0 .42.123.77.385 1.05s.578.438.998.438c.472 0 .858-.193 1.12-.56.245-.368.385-.858.385-1.453zM52.391 16.521c0 .665-.228 1.225-.7 1.645-.507.455-1.243.7-2.153.7-.857 0-1.54-.158-2.048-.49l.298-1.05c.56.333 1.173.508 1.837.508.472 0 .858-.105 1.12-.315s.403-.508.403-.858c0-.315-.105-.595-.332-.805-.21-.228-.578-.42-1.085-.613-1.383-.525-2.083-1.278-2.083-2.275 0-.648.245-1.19.735-1.593.49-.42 1.138-.63 1.943-.63.717 0 1.312.123 1.803.368l-.315 1.033a3.112 3.112 0 0 0-1.523-.368c-.455 0-.788.105-1.05.333a.944.944 0 0 0-.315.718c0 .315.123.578.368.77.21.193.595.385 1.155.613.683.28 1.19.595 1.505.963.28.35.438.805.438 1.348zM56.591 13.984h-1.4v2.765c0 .7.245 1.05.735 1.05.227 0 .42-.018.56-.052l.035.963c-.245.088-.577.14-.98.14-.508 0-.893-.158-1.173-.455s-.42-.823-.42-1.54v-2.87h-.84v-.945h.84v-1.05l1.243-.368v1.418h1.4v.945zM62.892 15.839c0 .875-.245 1.593-.753 2.17-.525.578-1.225.875-2.1.875-.84 0-1.505-.28-1.995-.84s-.753-1.26-.753-2.1c0-.893.263-1.61.77-2.17s1.208-.84 2.065-.84c.84 0 1.505.28 2.013.84.525.525.753 1.225.753 2.065zm-1.313.052c0-.525-.105-.98-.333-1.348-.262-.455-.648-.683-1.137-.683-.508 0-.893.228-1.155.683-.227.385-.333.84-.333 1.383 0 .525.105.98.333 1.348.28.455.665.683 1.155.683s.857-.228 1.137-.7c.228-.385.333-.84.333-1.365zM67.022 14.159a2.964 2.964 0 0 0-.403-.035c-.437 0-.788.175-1.033.508-.21.298-.315.665-.315 1.12v2.993h-1.26l.018-3.92c0-.665-.018-1.26-.053-1.803h1.103l.053 1.085h.035c.14-.367.35-.683.63-.91.28-.21.595-.298.91-.298.123 0 .227 0 .315.017v1.243zM72.693 15.629c0 .228-.017.42-.052.578h-3.798c.017.56.192.998.56 1.295.315.263.735.403 1.243.403.56 0 1.085-.087 1.54-.263l.192.875c-.542.228-1.173.35-1.907.35-.893 0-1.575-.263-2.083-.788s-.752-1.225-.752-2.1c0-.858.227-1.575.7-2.153.49-.613 1.155-.91 1.995-.91.823 0 1.453.298 1.873.91.332.49.49 1.085.49 1.803zm-1.208-.333c0-.367-.07-.7-.245-.98-.227-.35-.56-.525-1.015-.525-.42 0-.753.175-1.015.525-.21.28-.333.595-.368.98h2.643zM29.201 5.951c0 .7-.21 1.225-.63 1.575-.385.333-.945.49-1.663.49-.35 0-.665-.018-.91-.053V4.13a6.708 6.708 0 0 1 1.068-.088c.683 0 1.19.14 1.54.438.403.368.595.858.595 1.47zm-.665.017c0-.455-.123-.805-.368-1.05s-.595-.368-1.05-.368c-.193 0-.368.018-.508.035V7.49c.07.018.21.018.42.018.473 0 .84-.14 1.103-.403s.403-.63.403-1.138zM32.684 6.563c0 .438-.122.788-.368 1.068-.263.28-.595.42-1.033.42-.42 0-.735-.14-.98-.403-.245-.28-.368-.613-.368-1.033 0-.438.123-.788.385-1.068.245-.28.595-.42 1.015-.42s.735.14.998.403c.228.28.35.613.35 1.033zm-.648.018c0-.263-.052-.473-.175-.665-.123-.228-.315-.333-.56-.333s-.438.105-.578.333a1.362 1.362 0 0 0-.175.683c0 .262.052.473.175.665.14.227.315.333.56.333s.42-.105.56-.35c.14-.175.193-.403.193-.665zM37.357 5.18l-.875 2.8h-.578l-.368-1.225a8.702 8.702 0 0 1-.227-.91h-.018a5.27 5.27 0 0 1-.228.91l-.385 1.225H34.1l-.823-2.8h.648l.315 1.33c.07.315.14.613.193.893h.017c.053-.228.123-.525.228-.893l.403-1.348h.508l.385 1.313c.087.315.175.63.227.928h.018c.035-.28.105-.595.193-.928l.333-1.313.613.018zM40.595 7.998h-.63v-1.61c0-.49-.193-.735-.56-.735-.193 0-.333.07-.455.21s-.175.298-.175.473v1.663h-.63V6.004c0-.245 0-.508-.017-.805h.543l.035.438h.018a.825.825 0 0 1 .315-.333c.175-.105.35-.158.56-.158.263 0 .473.087.648.263.21.21.315.525.315.928V8h.035zM42.31 7.998h-.63V3.903h.63v4.095zM45.985 6.563c0 .438-.123.788-.368 1.068-.262.28-.595.42-1.032.42-.42 0-.735-.14-.98-.403-.245-.28-.368-.613-.368-1.033 0-.438.123-.788.385-1.068.245-.28.595-.42 1.015-.42s.735.14.997.403c.227.28.35.613.35 1.033zm-.648.018c0-.263-.052-.473-.175-.665-.123-.228-.315-.333-.56-.333s-.438.105-.578.333a1.362 1.362 0 0 0-.175.683c0 .262.053.473.175.665.14.227.315.333.56.333s.42-.105.56-.35c.14-.175.192-.403.192-.665zM48.995 7.998h-.56l-.053-.315h-.017c-.192.262-.472.385-.823.385a.87.87 0 0 1-.648-.263.854.854 0 0 1-.227-.578c0-.35.14-.613.437-.788.28-.175.683-.263 1.208-.263v-.053c0-.368-.192-.56-.578-.56-.28 0-.525.07-.735.21l-.123-.403c.262-.158.577-.245.963-.245.735 0 1.103.385 1.103 1.155v1.033c.017.298.035.508.052.683zm-.647-.962v-.438c-.683-.018-1.032.175-1.032.56 0 .14.035.263.123.333s.175.105.297.105c.14 0 .263-.035.385-.122s.192-.193.21-.333c.017-.035.017-.07.017-.105zM52.548 7.998h-.56l-.035-.455h-.018c-.175.35-.472.508-.893.508-.332 0-.613-.14-.84-.403s-.333-.613-.333-1.033c0-.455.123-.823.368-1.103.228-.262.525-.385.858-.385.385 0 .648.123.787.385h.018v-1.61h.63v3.343c-.017.263 0 .525.018.753zm-.647-1.19v-.473c0-.088 0-.14-.018-.193-.035-.158-.105-.28-.227-.385s-.262-.158-.42-.158c-.228 0-.42.087-.543.28-.14.193-.192.42-.192.718 0 .28.07.508.192.683.14.193.315.28.543.28.21 0 .367-.07.49-.228a.901.901 0 0 0 .175-.525zM57.869 6.563c0 .438-.123.788-.368 1.068-.262.28-.595.42-1.032.42-.403 0-.735-.14-.98-.403-.245-.28-.368-.613-.368-1.033 0-.438.123-.788.385-1.068.245-.28.595-.42 1.015-.42.403 0 .735.14.998.403.245.28.35.613.35 1.033zm-.63.018c0-.263-.053-.473-.175-.665-.14-.228-.315-.333-.56-.333s-.437.105-.578.333a1.362 1.362 0 0 0-.175.683c0 .262.053.473.175.665.14.227.315.333.56.333s.42-.105.56-.35c.123-.175.193-.403.193-.665zM61.229 7.998h-.63v-1.61c0-.49-.192-.735-.56-.735-.192 0-.333.07-.455.21s-.175.298-.175.473v1.663h-.63V6.004c0-.245 0-.508-.017-.805h.542l.035.438h.018a.825.825 0 0 1 .315-.333c.175-.105.35-.158.56-.158a.87.87 0 0 1 .648.263c.21.21.315.525.315.928V8h.035zM65.429 5.653h-.683v1.365c0 .35.123.525.368.525.105 0 .21-.017.28-.035l.017.473c-.123.053-.28.07-.49.07-.245 0-.437-.07-.577-.227s-.21-.403-.21-.753V5.653h-.42V5.18h.403v-.508l.613-.193v.7h.683l.018.473zM68.72 7.998h-.63V6.405c0-.508-.193-.753-.56-.753-.297 0-.49.14-.595.438-.017.07-.035.14-.035.228v1.68h-.63V3.903h.63v1.698h.018c.192-.315.472-.455.84-.455.262 0 .472.087.648.262.21.21.315.525.315.945v1.645zM72.132 6.458c0 .105 0 .21-.017.28h-1.873c0 .28.105.49.262.63a.99.99 0 0 0 .613.193c.28 0 .525-.053.753-.14l.105.438c-.263.123-.578.175-.945.175-.437 0-.77-.123-1.032-.385-.245-.263-.368-.595-.368-1.033 0-.42.123-.77.35-1.05.245-.298.56-.455.98-.455.403 0 .717.158.91.455.175.245.262.543.262.893zm-.595-.157c0-.193-.035-.35-.123-.473-.105-.175-.28-.263-.49-.263s-.368.088-.49.263c-.105.14-.157.298-.192.49 0-.018 1.295-.018 1.295-.018z" style="fill:var(--color2, #fff)"/>
        </symbol>
        <symbol id="instagram" viewBox="0 0 40 40">
            <path d="M30.625 0H9.375C4.19733 0 0 4.19733 0 9.375V30.625C0 35.8027 4.19733 40 9.375 40H30.625C35.8027 40 40 35.8027 40 30.625V9.375C40 4.19733 35.8027 0 30.625 0Z" fill="url(#paint0_radial_184_7138)"/>
            <path d="M30.625 0H9.375C4.19733 0 0 4.19733 0 9.375V30.625C0 35.8027 4.19733 40 9.375 40H30.625C35.8027 40 40 35.8027 40 30.625V9.375C40 4.19733 35.8027 0 30.625 0Z" fill="url(#paint1_radial_184_7138)"/>
            <path d="M20.0014 4.375C15.758 4.375 15.2253 4.39359 13.5588 4.46938C11.8953 4.54563 10.7598 4.80891 9.76641 5.19531C8.73859 5.59438 7.86688 6.12828 6.99844 6.99703C6.12922 7.86562 5.59531 8.73734 5.195 9.76469C4.8075 10.7584 4.54391 11.8944 4.46906 13.557C4.39453 15.2238 4.375 15.7566 4.375 20.0002C4.375 24.2438 4.39375 24.7747 4.46938 26.4412C4.54594 28.1047 4.80922 29.2402 5.19531 30.2336C5.59469 31.2614 6.12859 32.1331 6.99734 33.0016C7.86563 33.8708 8.73734 34.4059 9.76438 34.805C10.7586 35.1914 11.8942 35.4547 13.5573 35.5309C15.2241 35.6067 15.7563 35.6253 19.9995 35.6253C24.2434 35.6253 24.7744 35.6067 26.4409 35.5309C28.1044 35.4547 29.2411 35.1914 30.2353 34.805C31.2627 34.4059 32.1331 33.8708 33.0012 33.0016C33.8705 32.1331 34.4042 31.2614 34.8047 30.2341C35.1887 29.2402 35.4525 28.1044 35.5306 26.4416C35.6055 24.775 35.625 24.2438 35.625 20.0002C35.625 15.7566 35.6055 15.2241 35.5306 13.5573C35.4525 11.8939 35.1887 10.7586 34.8047 9.76516C34.4042 8.73734 33.8705 7.86562 33.0012 6.99703C32.1322 6.12797 31.263 5.59406 30.2344 5.19547C29.2383 4.80891 28.1022 4.54547 26.4387 4.46938C24.772 4.39359 24.2414 4.375 19.9966 4.375H20.0014ZM18.5997 7.19078C19.0158 7.19016 19.48 7.19078 20.0014 7.19078C24.1734 7.19078 24.6678 7.20578 26.3153 7.28063C27.8387 7.35031 28.6656 7.60484 29.2164 7.81875C29.9456 8.10188 30.4655 8.44047 31.012 8.9875C31.5589 9.53438 31.8973 10.0552 32.1813 10.7844C32.3952 11.3344 32.65 12.1613 32.7194 13.6847C32.7942 15.3319 32.8105 15.8266 32.8105 19.9966C32.8105 24.1666 32.7942 24.6614 32.7194 26.3084C32.6497 27.8319 32.3952 28.6587 32.1813 29.2089C31.8981 29.9381 31.5589 30.4573 31.012 31.0039C30.4652 31.5508 29.9459 31.8892 29.2164 32.1725C28.6663 32.3873 27.8387 32.6413 26.3153 32.7109C24.6681 32.7858 24.1734 32.802 20.0014 32.802C15.8292 32.802 15.3347 32.7858 13.6877 32.7109C12.1642 32.6406 11.3373 32.3861 10.7861 32.1722C10.057 31.8889 9.53609 31.5505 8.98922 31.0036C8.44234 30.4567 8.10391 29.9372 7.82 29.2077C7.60609 28.6575 7.35125 27.8306 7.28188 26.3072C7.20703 24.66 7.19203 24.1653 7.19203 19.9927C7.19203 15.82 7.20703 15.328 7.28188 13.6808C7.35156 12.1573 7.60609 11.3305 7.82 10.7797C8.10328 10.0505 8.44234 9.52969 8.98938 8.98281C9.53641 8.43594 10.057 8.09734 10.7862 7.81359C11.337 7.59875 12.1642 7.34484 13.6877 7.27484C15.1291 7.20969 15.6877 7.19016 18.5997 7.18687V7.19078ZM28.342 9.78516C27.3069 9.78516 26.467 10.6242 26.467 11.6595C26.467 12.6947 27.3069 13.5345 28.342 13.5345C29.3772 13.5345 30.217 12.6947 30.217 11.6595C30.217 10.6244 29.3772 9.78453 28.342 9.78453V9.78516ZM20.0014 11.9759C15.5702 11.9759 11.9773 15.5688 11.9773 20.0002C11.9773 24.4316 15.5702 28.0227 20.0014 28.0227C24.4328 28.0227 28.0244 24.4316 28.0244 20.0002C28.0244 15.5689 24.4325 11.9759 20.0011 11.9759H20.0014ZM20.0014 14.7917C22.8778 14.7917 25.2098 17.1234 25.2098 20.0002C25.2098 22.8766 22.8778 25.2086 20.0014 25.2086C17.125 25.2086 14.7931 22.8766 14.7931 20.0002C14.7931 17.1234 17.1248 14.7917 20.0014 14.7917Z" fill="white"/>
            <defs>
                <radialGradient id="paint0_radial_184_7138" cx="0" cy="0" r="1" gradientUnits="userSpaceOnUse" gradientTransform="translate(10.625 43.0808) rotate(-90) scale(39.643 36.8711)">
                    <stop stop-color="#FFDD55"/>
                    <stop offset="0.1" stop-color="#FFDD55"/>
                    <stop offset="0.5" stop-color="#FF543E"/>
                    <stop offset="1" stop-color="#C837AB"/>
                </radialGradient>
                <radialGradient id="paint1_radial_184_7138" cx="0" cy="0" r="1" gradientUnits="userSpaceOnUse" gradientTransform="translate(-6.70016 2.88141) rotate(78.681) scale(17.7206 73.045)">
                    <stop stop-color="#3771C8"/>
                    <stop offset="0.128" stop-color="#3771C8"/>
                    <stop offset="1" stop-color="#6600FF" stop-opacity="0"/>
                </radialGradient>
            </defs>
        </symbol>
        <symbol id="youtube" viewBox="0 0 34 24">
            <path fill="#f00" d="M33.529 3.743c-.197-.724-.58-1.383-1.113-1.913S31.221.918 30.494.722C27.833 0 17.125 0 17.125 0S6.416.022 3.756.744c-.727.196-1.389.578-1.922 1.108S.918 3.042.721 3.765C-.084 8.471-.396 15.643.743 20.161c.197.724.58 1.383 1.113 1.913s1.195.912 1.922 1.108c2.661.722 13.369.722 13.369.722s10.708 0 13.369-.722c.727-.196 1.389-.578 1.922-1.108s.916-1.19 1.113-1.913c.849-4.713 1.11-11.88-.022-16.418z" style="fill:var(--color5, #f00)"/>
            <path fill="#fff" d="m13.717 17.074 8.883-5.122-8.883-5.122v10.245z" style="fill:var(--color2, #fff)"/>
        </symbol>
        <symbol id="twitter" viewBox="0 0 24 24">
            <path fill="#fff" d="M18.375 0H5.625A5.624 5.624 0 0 0 0 5.625v12.75A5.624 5.624 0 0 0 5.625 24h12.75A5.624 5.624 0 0 0 24 18.375V5.625A5.624 5.624 0 0 0 18.375 0z" style="fill:var(--color2, #fff)"/>
            <path fill="#1d9bf0" d="M18.375 0H5.625A5.624 5.624 0 0 0 0 5.625v12.75A5.624 5.624 0 0 0 5.625 24h12.75A5.624 5.624 0 0 0 24 18.375V5.625A5.624 5.624 0 0 0 18.375 0z" style="fill:var(--color6, #1d9bf0)"/>
            <path fill="#fff" d="M18.71 8.57c.01.149.01.298.01.448 0 4.575-3.483 9.851-9.851 9.851v-.003a9.798 9.798 0 0 1-5.307-1.552 6.955 6.955 0 0 0 5.124-1.435 3.467 3.467 0 0 1-3.234-2.404c.519.1 1.053.08 1.563-.06a3.462 3.462 0 0 1-2.777-3.394v-.044c.481.268 1.02.417 1.571.433a3.468 3.468 0 0 1-1.072-4.623 9.835 9.835 0 0 0 7.135 3.617 3.465 3.465 0 0 1 5.9-3.158 6.957 6.957 0 0 0 2.199-.84 3.471 3.471 0 0 1-1.522 1.915 6.9 6.9 0 0 0 1.988-.545 7.031 7.031 0 0 1-1.728 1.793z" style="fill:var(--color2, #fff)"/>
        </symbol>
        <symbol id="brain" viewBox="0 0 24 24">
            <path d="M22 11a4 4 0 0 0-2-3.48A3.01 3.01 0 0 0 20 7a3.004 3.004 0 0 0-3-3h-.18a2.99 2.99 0 0 0-3.536-1.895A3.005 3.005 0 0 0 12 2.781 3 3 0 0 0 7.18 4H7a3.004 3.004 0 0 0-3 3 3.01 3.01 0 0 0 0 .52 4 4 0 0 0-.55 6.589A4.003 4.003 0 0 0 7 19.999h.18a3.004 3.004 0 0 0 2.085 1.89A2.993 2.993 0 0 0 12 21.218a3 3 0 0 0 4.82-1.219H17a3.996 3.996 0 0 0 3.414-1.957 4 4 0 0 0 .086-3.933 4.009 4.009 0 0 0 1.5-3.11zM11 8.55a4.9 4.9 0 0 0-.68-.32 1.001 1.001 0 1 0-.64 1.9A2 2 0 0 1 11 12v1.55a4.9 4.9 0 0 0-.68-.32 1.001 1.001 0 1 0-.64 1.9A2 2 0 0 1 11 17v2a.997.997 0 0 1-1.91.4c.168-.098.328-.208.48-.33a.993.993 0 0 0 .357-.679 1.005 1.005 0 0 0-.531-.978 1.01 1.01 0 0 0-.764-.07.996.996 0 0 0-.343.186 2.002 2.002 0 0 1-3.29-1.53c.005-.376.116-.744.32-1.06.225.039.452.059.68.06a.997.997 0 0 0 1-1 .997.997 0 0 0-1-1 1.811 1.811 0 0 1-.69-.13 1.995 1.995 0 0 1-1.314-1.711A1.999 1.999 0 0 1 5 9.248c.142.131.296.248.46.35a1.005 1.005 0 1 0 1-1.74.894.894 0 0 1-.46-.86.997.997 0 0 1 1-1 .82.82 0 0 1 .21 0c.053.161.117.318.19.47a1 1 0 0 0 1.37.37.999.999 0 0 0 .36-1.34 1.052 1.052 0 0 1-.13-.5.997.997 0 0 1 1-1 .997.997 0 0 1 1 1v3.55zm7.69 4.32A1.811 1.811 0 0 1 18 13a.997.997 0 0 0-1 1 .997.997 0 0 0 1 1c.228-.001.455-.021.68-.06.204.316.315.684.32 1.06a2 2 0 0 1-3.29 1.53 1.002 1.002 0 0 0-1.28 1.54c.152.122.312.232.48.33a1.006 1.006 0 0 1-.91.6.997.997 0 0 1-1-1v-2a2.002 2.002 0 0 1 1.32-1.87 1 1 0 0 0 .63-1.27 1 1 0 0 0-1.27-.63 4.9 4.9 0 0 0-.68.32V12a2.002 2.002 0 0 1 1.32-1.871.99.99 0 0 0 .578-.505.994.994 0 0 0 .052-.766.99.99 0 0 0-.505-.578.994.994 0 0 0-.766-.052 4.9 4.9 0 0 0-.68.32v-3.55a.997.997 0 0 1 1-1 .997.997 0 0 1 1 1 1.052 1.052 0 0 1-.13.5.996.996 0 0 0 .731 1.495 1.01 1.01 0 0 0 .742-.2.987.987 0 0 0 .257-.296c.074-.162.138-.329.19-.5a.82.82 0 0 1 .21 0 .997.997 0 0 1 .5 1.86 1.005 1.005 0 0 0-.37 1.37 1.005 1.005 0 0 0 1.37.37c.179-.097.347-.215.5-.35a2.006 2.006 0 0 1 1.022 1.896 1.998 1.998 0 0 1-1.292 1.724h-.04z"/>
        </symbol>
        <symbol id="time-line" viewBox="0 0 24 24">
            <path d="M12 2c5.523 0 10 4.477 10 10s-4.477 10-10 10S2 17.523 2 12 6.477 2 12 2zm0 2a8 8 0 1 0 0 16 8 8 0 0 0 0-16zm0 2a.998.998 0 0 1 .993.883L13 7v4.586l2.707 2.707a1.002 1.002 0 0 1-.613 1.701 1.003 1.003 0 0 1-.707-.204l-.094-.083-3-3a1.005 1.005 0 0 1-.284-.576L11 12V7a.997.997 0 0 1 1-1z"/>
        </symbol>
        <symbol id="eyes" viewBox="0 0 24 24">
            <path d="M16.5 3c-1.932 0-3.589 1.702-4.5 4.298C11.089 4.702 9.432 3 7.5 3c-2.944 0-5.25 3.953-5.25 9s2.306 9 5.25 9c1.932 0 3.589-1.703 4.5-4.298.911 2.596 2.568 4.298 4.5 4.298 2.944 0 5.25-3.953 5.25-9s-2.306-9-5.25-9zm-6.476 14.474C9.322 18.761 8.402 19.5 7.5 19.5s-1.822-.739-2.524-2.026a9.838 9.838 0 0 1-.96-2.74 2.996 2.996 0 0 0 2.862-.213 3.007 3.007 0 0 0 1.374-2.52 2.999 2.999 0 0 0-4.236-2.733 9.838 9.838 0 0 1 .96-2.74C5.678 5.241 6.598 4.502 7.5 4.502s1.822.739 2.524 2.026c.79 1.449 1.226 3.394 1.226 5.474s-.436 4.025-1.226 5.474zm9 0c-.702 1.287-1.622 2.026-2.524 2.026s-1.822-.739-2.524-2.026a9.838 9.838 0 0 1-.96-2.74 2.996 2.996 0 0 0 2.862-.213 3.007 3.007 0 0 0 1.374-2.52 2.999 2.999 0 0 0-4.236-2.733 9.838 9.838 0 0 1 .96-2.74c.702-1.287 1.622-2.026 2.524-2.026s1.822.739 2.524 2.026c.79 1.449 1.226 3.394 1.226 5.474s-.436 4.025-1.226 5.474z"/>
        </symbol>
        <symbol id="spatula" viewBox="0 0 24 24">
            <path stroke-linecap="round" stroke-linejoin="round" stroke-width="1.645" d="m10.9 15.225-7.385 7.382a1.5 1.5 0 0 1-2.122-2.122L8.775 13.1"/>
            <path stroke-linecap="round" stroke-linejoin="round" stroke-width="1.645" d="m4.575 17.303 2.122 2.122m8.485-14.85L11.47 8.288m5.833-1.591-3.712 3.712m5.834-1.591-3.713 3.712m6.895-4.773-6.364-6.364a1.496 1.496 0 0 0-1.635-.325 1.507 1.507 0 0 0-.487.325l-3.244 3.244a8.8 8.8 0 0 0-2.144 8.424l2.2 2.2a8.792 8.792 0 0 0 8.424-2.144l3.244-3.244a1.501 1.501 0 0 0 .006-2.116z"/>
        </symbol>
    </defs>
</svg>